<svg xmlns="http://www.w3.org/2000/svg" width="413" height="75" viewBox="0 0 413 75">
  <g id="Grupo_10777" data-name="Grupo 10777" transform="translate(-1182 -553)">
    <rect id="Rect치ngulo_6204" data-name="Rect치ngulo 6204" width="413" height="75" rx="37.5" transform="translate(1182 553)" fill="#277d3e"/>
    <path id="Trazado_31373" data-name="Trazado 31373" d="M7.219-7.891l.391,2.984.094.016.531-3L12.266-22.75h3.016L19.344-7.891l.531,3.047h.094l.422-3.047,3.25-14.859h3.344L21.484,0h-2.75L14.188-15.781l-.344-2.047H13.75l-.328,2.047L8.813,0H6.063L.578-22.75H3.906Zm25.641-6.75a6.237,6.237,0,0,1,2.148-1.9,5.894,5.894,0,0,1,2.82-.68,5.46,5.46,0,0,1,4.211,1.625,7.149,7.149,0,0,1,1.508,5V0H40.469V-10.625a4.525,4.525,0,0,0-.9-3.094,3.419,3.419,0,0,0-2.68-1,5.029,5.029,0,0,0-2.391.539,4.348,4.348,0,0,0-1.641,1.508V0H29.781V-24.375h3.078ZM58.359,0q-.156-.766-.242-1.352a9.921,9.921,0,0,1-.1-1.18A7.177,7.177,0,0,1,55.773-.492,5.734,5.734,0,0,1,52.8.328a5.526,5.526,0,0,1-4.023-1.352A4.971,4.971,0,0,1,47.391-4.75a4.366,4.366,0,0,1,1.961-3.789,9.158,9.158,0,0,1,5.32-1.367h3.344v-1.672a3.1,3.1,0,0,0-.906-2.352,3.558,3.558,0,0,0-2.562-.867,3.718,3.718,0,0,0-2.422.75,2.25,2.25,0,0,0-.922,1.8l-2.922.031-.031-.094a4.047,4.047,0,0,1,1.727-3.375,7.156,7.156,0,0,1,4.742-1.531,6.981,6.981,0,0,1,4.625,1.461,5.175,5.175,0,0,1,1.75,4.211v8.141a15.846,15.846,0,0,0,.094,1.75A9,9,0,0,0,61.531,0ZM53.25-2.25a5.478,5.478,0,0,0,3.016-.859,4.085,4.085,0,0,0,1.75-1.969v-2.75H54.563a4.479,4.479,0,0,0-2.977.938,2.8,2.8,0,0,0-1.117,2.2,2.318,2.318,0,0,0,.7,1.781A2.943,2.943,0,0,0,53.25-2.25ZM69.844-20.984v4.078h3.2v2.281h-3.2V-4.359a2.3,2.3,0,0,0,.492,1.672,1.779,1.779,0,0,0,1.3.484,2.859,2.859,0,0,0,.594-.07,4.4,4.4,0,0,0,.547-.148L73.2-.312a2.72,2.72,0,0,1-1.016.461,5.125,5.125,0,0,1-1.328.18A3.986,3.986,0,0,1,67.875-.8a4.92,4.92,0,0,1-1.109-3.555V-14.625H64.078v-2.281h2.688v-4.078ZM86.172-4.547A2.051,2.051,0,0,0,85.4-6.2a7.465,7.465,0,0,0-2.93-1.125,12.293,12.293,0,0,1-4.586-1.8,3.629,3.629,0,0,1-1.6-3.094,4.458,4.458,0,0,1,1.758-3.531,6.865,6.865,0,0,1,4.555-1.469,6.8,6.8,0,0,1,4.656,1.563,4.477,4.477,0,0,1,1.7,3.641l-.031.094H85.984a2.662,2.662,0,0,0-.961-1.984,3.435,3.435,0,0,0-2.43-.891,3.5,3.5,0,0,0-2.43.734,2.291,2.291,0,0,0-.8,1.75,1.854,1.854,0,0,0,.7,1.547,7.7,7.7,0,0,0,2.867,1,12.116,12.116,0,0,1,4.719,1.859A3.744,3.744,0,0,1,89.25-4.766a4.451,4.451,0,0,1-1.82,3.672A7.509,7.509,0,0,1,82.672.328a7.43,7.43,0,0,1-5.094-1.641,4.682,4.682,0,0,1-1.766-3.828l.031-.094h2.938A2.847,2.847,0,0,0,80-2.836a4.715,4.715,0,0,0,2.672.758,4.209,4.209,0,0,0,2.57-.7A2.127,2.127,0,0,0,86.172-4.547ZM105.25-5.859H96.688L94.656,0H91.516l8.2-22.75h2.641L110.391,0H107.25ZM97.578-8.437h6.8L101.063-18.2h-.094Zm30.141.625a9.318,9.318,0,0,1-1.75,5.9A5.786,5.786,0,0,1,121.141.328,6.708,6.708,0,0,1,118.4-.2a5.244,5.244,0,0,1-2.008-1.57V6.5h-3.078V-16.906h2.359l.484,2.188a5.583,5.583,0,0,1,2.063-1.859,6.157,6.157,0,0,1,2.875-.641,5.619,5.619,0,0,1,4.883,2.492,11.275,11.275,0,0,1,1.742,6.586Zm-3.078-.328a8.933,8.933,0,0,0-1.133-4.727,3.671,3.671,0,0,0-3.336-1.852,4.107,4.107,0,0,0-2.266.6,4.5,4.5,0,0,0-1.516,1.648V-4.3a4.371,4.371,0,0,0,1.516,1.633,4.252,4.252,0,0,0,2.3.586,3.789,3.789,0,0,0,3.313-1.6,7.032,7.032,0,0,0,1.125-4.133Zm21.266.328a9.318,9.318,0,0,1-1.75,5.9A5.786,5.786,0,0,1,139.328.328,6.708,6.708,0,0,1,136.586-.2a5.244,5.244,0,0,1-2.008-1.57V6.5H131.5V-16.906h2.359l.484,2.188a5.583,5.583,0,0,1,2.063-1.859,6.157,6.157,0,0,1,2.875-.641,5.619,5.619,0,0,1,4.883,2.492,11.275,11.275,0,0,1,1.742,6.586Zm-3.078-.328a8.933,8.933,0,0,0-1.133-4.727,3.671,3.671,0,0,0-3.336-1.852,4.107,4.107,0,0,0-2.266.6,4.5,4.5,0,0,0-1.516,1.648V-4.3a4.371,4.371,0,0,0,1.516,1.633,4.252,4.252,0,0,0,2.3.586,3.789,3.789,0,0,0,3.313-1.6,7.032,7.032,0,0,0,1.125-4.133Z" transform="translate(1354 602)" fill="#fff"/>
    <g id="Grupo_10776" data-name="Grupo 10776" transform="translate(189 -44)">
      <g id="whatsapp" transform="translate(1087.31 622)">
        <path id="Trazado_31371" data-name="Trazado 31371" d="M13.579.015A12.505,12.505,0,0,0,3.051,18.177L1.724,24.619a.487.487,0,0,0,.589.572l6.312-1.5A12.5,12.5,0,1,0,13.579.015Zm7.532,19.407A9.794,9.794,0,0,1,9.834,21.267l-.879-.438-3.87.917L5.9,17.792l-.433-.848a9.8,9.8,0,0,1,1.8-11.364A9.788,9.788,0,1,1,21.111,19.421Z" transform="translate(0 0)" fill="#fff"/>
        <path id="Trazado_31372" data-name="Trazado 31372" d="M116.945,116.153l-2.421-.7a.9.9,0,0,0-.893.235l-.592.6a.882.882,0,0,1-.959.2,12.926,12.926,0,0,1-4.17-3.677.882.882,0,0,1,.07-.978l.517-.669a.9.9,0,0,0,.111-.917l-1.019-2.3a.9.9,0,0,0-1.41-.323,4.072,4.072,0,0,0-1.575,2.4c-.172,1.7.556,3.835,3.307,6.4,3.178,2.967,5.724,3.358,7.381,2.957a4.072,4.072,0,0,0,2.165-1.888A.9.9,0,0,0,116.945,116.153Z" transform="translate(-96.688 -100.942)" fill="#fff"/>
      </g>
      <rect id="Rect치ngulo_6206" data-name="Rect치ngulo 6206" width="32" height="32" transform="translate(1085 619)" fill="none"/>
    </g>
  </g>
</svg>
