<svg xmlns="http://www.w3.org/2000/svg" width="413" height="75" viewBox="0 0 413 75">
  <g id="Grupo_10779" data-name="Grupo 10779" transform="translate(-1182 -783)">
    <rect id="Rectángulo_6155" data-name="Rectángulo 6155" width="413" height="75" rx="37.5" transform="translate(1182 783)" fill="#44b2f2"/>
    <path id="Trazado_31375" data-name="Trazado 31375" d="M5.734-2.406H16.828V0H2.656V-22.75H5.734ZM23.156,0H20.078V-16.906h3.078Zm0-21.234H20.078v-3.141h3.078Zm7.484,4.328.219,2.516a6.139,6.139,0,0,1,2.117-2.086,5.649,5.649,0,0,1,2.9-.742,5.518,5.518,0,0,1,4.234,1.6,7.031,7.031,0,0,1,1.5,4.945V0H38.531V-10.609a4.573,4.573,0,0,0-.883-3.172,3.537,3.537,0,0,0-2.7-.937,4.772,4.772,0,0,0-2.414.57,4.145,4.145,0,0,0-1.57,1.6V0H27.891V-16.906ZM50.75-7.8H49.172V0H46.094V-24.375h3.078V-10.25h1.547L55.8-16.906h3.688l-6.141,7.8L60.016,0H56.375ZM69.172.328A7.152,7.152,0,0,1,63.492-2a8.96,8.96,0,0,1-2.039-6.125v-.687a8.772,8.772,0,0,1,2.1-6.023,6.59,6.59,0,0,1,5.133-2.383,6.135,6.135,0,0,1,5.086,2.109,8.69,8.69,0,0,1,1.7,5.609v1.625H64.656l-.047.078a6.988,6.988,0,0,0,1.125,4.133,3.931,3.931,0,0,0,3.438,1.586,7.743,7.743,0,0,0,2.742-.445A6.121,6.121,0,0,0,73.938-3.75l1.2,2A7.4,7.4,0,0,1,72.75-.273,9.523,9.523,0,0,1,69.172.328ZM68.688-14.8a3.346,3.346,0,0,0-2.664,1.242,5.877,5.877,0,0,0-1.289,3.18l.031.078h7.625v-.25a4.923,4.923,0,0,0-.906-3.047A3.275,3.275,0,0,0,68.688-14.8Zm9.531,6.656a11.282,11.282,0,0,1,1.742-6.578,5.613,5.613,0,0,1,4.883-2.5,6.054,6.054,0,0,1,2.633.547,5.4,5.4,0,0,1,1.961,1.594v-9.3h3.078V0H90.156l-.469-2.141A5.487,5.487,0,0,1,87.641-.3a6.115,6.115,0,0,1-2.828.625,5.8,5.8,0,0,1-4.844-2.242,9.318,9.318,0,0,1-1.75-5.9Zm3.078.328a7.177,7.177,0,0,0,1.047,4.1,3.656,3.656,0,0,0,3.25,1.539A4.077,4.077,0,0,0,87.906-2.8a4.667,4.667,0,0,0,1.531-1.75v-7.891A4.739,4.739,0,0,0,87.9-14.1a4.067,4.067,0,0,0-2.273-.617,3.518,3.518,0,0,0-3.273,1.828A9.436,9.436,0,0,0,81.3-8.141ZM100.438,0H97.359V-16.906h3.078Zm0-21.234H97.359v-3.141h3.078Zm7.484,4.328.219,2.516a6.139,6.139,0,0,1,2.117-2.086,5.649,5.649,0,0,1,2.9-.742,5.518,5.518,0,0,1,4.234,1.6,7.031,7.031,0,0,1,1.5,4.945V0h-3.078V-10.609a4.573,4.573,0,0,0-.883-3.172,3.537,3.537,0,0,0-2.7-.937,4.772,4.772,0,0,0-2.414.57,4.145,4.145,0,0,0-1.57,1.6V0h-3.078V-16.906Z" transform="translate(1354 832)" fill="#fff"/>
    <g id="Grupo_10770" data-name="Grupo 10770" transform="translate(-7984 194)">
      <rect id="Rectángulo_6192" data-name="Rectángulo 6192" width="21.333" height="32" transform="translate(9258 608)" fill="none"/>
      <g id="Grupo_10766" data-name="Grupo 10766" transform="translate(9258.014 608.039)">
        <rect id="Rectángulo_6184" data-name="Rectángulo 6184" width="7.446" height="21.281" transform="translate(0 10.641)" fill="#fff"/>
        <path id="Trazado_31360" data-name="Trazado 31360" d="M884.315,461.023a3.726,3.726,0,1,0,3.723,3.723A3.728,3.728,0,0,0,884.315,461.023Z" transform="translate(-880.592 -461.023)" fill="#fff"/>
        <path id="Trazado_31361" data-name="Trazado 31361" d="M926.932,491.314c-.5-4.011-2.507-6.537-7.929-6.537-3.848,0-5.379.6-6.261,2.28h0v-2.28h-6.028v21.281h6.2v-11.14c0-2.781.527-4.881,3.965-4.881,3.389,0,3.661,2.585,3.661,5.061v10.96h6.388S927.05,492.252,926.932,491.314Z" transform="translate(-895.012 -474.136)" fill="#fff"/>
      </g>
    </g>
  </g>
</svg>
