<svg xmlns="http://www.w3.org/2000/svg" width="413" height="75" viewBox="0 0 413 75">
  <g id="Grupo_10778" data-name="Grupo 10778" transform="translate(-1182 -668)">
    <rect id="Rect치ngulo_6203" data-name="Rect치ngulo 6203" width="413" height="75" rx="37.5" transform="translate(1182 668)" fill="#a0482d"/>
    <path id="Trazado_31374" data-name="Trazado 31374" d="M18.891-7.281l.031.094a6.834,6.834,0,0,1-2.25,5.359A8.6,8.6,0,0,1,10.563.328,8.023,8.023,0,0,1,4.273-2.406a10.056,10.056,0,0,1-2.43-6.937v-4.047a10.085,10.085,0,0,1,2.43-6.945,8.013,8.013,0,0,1,6.289-2.742A8.832,8.832,0,0,1,16.7-21.023a6.793,6.793,0,0,1,2.219,5.445l-.031.094H15.938a5.077,5.077,0,0,0-1.406-3.781,5.4,5.4,0,0,0-3.969-1.391,4.847,4.847,0,0,0-4.109,2.078,8.455,8.455,0,0,0-1.531,5.156v4.078A8.508,8.508,0,0,0,6.453-4.156a4.847,4.847,0,0,0,4.109,2.078,5.42,5.42,0,0,0,3.969-1.383,5.114,5.114,0,0,0,1.406-3.82Zm2.891-1.328a9.308,9.308,0,0,1,2.031-6.18,6.811,6.811,0,0,1,5.516-2.43A6.879,6.879,0,0,1,34.883-14.8a9.277,9.277,0,0,1,2.039,6.188v.344a9.262,9.262,0,0,1-2.031,6.188A6.858,6.858,0,0,1,29.359.328,6.871,6.871,0,0,1,23.82-2.086a9.247,9.247,0,0,1-2.039-6.18Zm3.078.344a8.019,8.019,0,0,0,1.133,4.438,3.75,3.75,0,0,0,3.367,1.75A3.74,3.74,0,0,0,32.7-3.828a7.976,7.976,0,0,0,1.141-4.437v-.344A7.952,7.952,0,0,0,32.7-13.031,3.764,3.764,0,0,0,29.328-14.8a3.713,3.713,0,0,0-3.336,1.766,8.036,8.036,0,0,0-1.133,4.422Zm23.828-5.922-1.578-.094a3.525,3.525,0,0,0-2.055.578,3.709,3.709,0,0,0-1.289,1.625V0H40.688V-16.906h2.75l.3,2.469a5.869,5.869,0,0,1,1.773-2.047,4.147,4.147,0,0,1,2.43-.734,3.8,3.8,0,0,1,.656.055,4.349,4.349,0,0,1,.516.117Zm11.2,0-1.578-.094a3.525,3.525,0,0,0-2.055.578,3.709,3.709,0,0,0-1.289,1.625V0H51.891V-16.906h2.75l.3,2.469a5.869,5.869,0,0,1,1.773-2.047,4.147,4.147,0,0,1,2.43-.734,3.8,3.8,0,0,1,.656.055,4.349,4.349,0,0,1,.516.117ZM69.8.328A7.152,7.152,0,0,1,64.117-2a8.96,8.96,0,0,1-2.039-6.125v-.687a8.772,8.772,0,0,1,2.1-6.023,6.59,6.59,0,0,1,5.133-2.383A6.135,6.135,0,0,1,74.4-15.109a8.69,8.69,0,0,1,1.7,5.609v1.625H65.281l-.047.078a6.988,6.988,0,0,0,1.125,4.133A3.931,3.931,0,0,0,69.8-2.078a7.743,7.743,0,0,0,2.742-.445A6.121,6.121,0,0,0,74.563-3.75l1.2,2A7.4,7.4,0,0,1,73.375-.273,9.523,9.523,0,0,1,69.8.328ZM69.313-14.8a3.346,3.346,0,0,0-2.664,1.242,5.877,5.877,0,0,0-1.289,3.18l.031.078h7.625v-.25a4.923,4.923,0,0,0-.906-3.047A3.275,3.275,0,0,0,69.313-14.8Zm9.516,6.188a9.308,9.308,0,0,1,2.031-6.18,6.811,6.811,0,0,1,5.516-2.43A6.879,6.879,0,0,1,91.93-14.8a9.277,9.277,0,0,1,2.039,6.188v.344a9.262,9.262,0,0,1-2.031,6.188A6.858,6.858,0,0,1,86.406.328a6.871,6.871,0,0,1-5.539-2.414,9.247,9.247,0,0,1-2.039-6.18Zm3.078.344a8.019,8.019,0,0,0,1.133,4.438,3.75,3.75,0,0,0,3.367,1.75,3.74,3.74,0,0,0,3.344-1.75,7.977,7.977,0,0,0,1.141-4.437v-.344a7.952,7.952,0,0,0-1.148-4.422A3.764,3.764,0,0,0,86.375-14.8a3.713,3.713,0,0,0-3.336,1.766,8.036,8.036,0,0,0-1.133,4.422Z" transform="translate(1354 717)" fill="#fff"/>
    <g id="Grupo_10775" data-name="Grupo 10775" transform="translate(301 111)">
      <g id="mail" transform="translate(975 584)">
        <path id="mail-2" data-name="mail" d="M3.015,6.424A1.586,1.586,0,0,1,4.6,4.838H29.964A1.586,1.586,0,0,1,31.55,6.424V24.385a3.172,3.172,0,0,1-3.172,3.172H6.172A3.172,3.172,0,0,1,3,24.385V6.938a1.6,1.6,0,0,1,.015-.223ZM6.172,9.951V24.385H28.378V9.952L20.64,17.689a4.758,4.758,0,0,1-6.729,0ZM8.666,7.959H25.884L18.4,15.446a1.586,1.586,0,0,1-2.243,0Z" transform="translate(-3 -4.838)" fill="#fff" fill-rule="evenodd"/>
      </g>
      <rect id="Rect치ngulo_6205" data-name="Rect치ngulo 6205" width="32" height="32" transform="translate(973 579)" fill="none"/>
    </g>
  </g>
</svg>
