<svg xmlns="http://www.w3.org/2000/svg" width="59" height="105" viewBox="0 0 59 105">
  <g id="Grupo_10750" data-name="Grupo 10750" transform="translate(-931 -885)">
    <g id="Rectángulo_23" data-name="Rectángulo 23" transform="translate(931 885)" fill="#ececec" stroke="#c5c4c4" stroke-width="1">
      <rect width="59" height="105" rx="29.5" stroke="none"/>
      <rect x="0.5" y="0.5" width="58" height="104" rx="29" fill="none"/>
    </g>
    <circle id="Elipse_280" data-name="Elipse 280" cx="13.5" cy="13.5" r="13.5" transform="translate(947 911)" fill="#a0482d"/>
    <g id="arrow-long-down-c" transform="translate(956.012 949.729)">
      <path id="arrow-long-down-c-2" data-name="arrow-long-down-c" d="M11,6.85a3,3,0,1,1,2,0l.013,12.288,1.812-1.823,1.418,1.41L12.012,22.98,7.757,18.749l1.41-1.418,1.845,1.834Zm1-1.83a1,1,0,1,1,1-1A1,1,0,0,1,12,5.02Z" transform="translate(-7.757 -1.02)" fill="#a0482d" fill-rule="evenodd"/>
    </g>
  </g>
</svg>
