<svg xmlns="http://www.w3.org/2000/svg" width="32" height="32" viewBox="0 0 32 32">
  <g id="Grupo_10775" data-name="Grupo 10775" transform="translate(-973 -579)">
    <g id="mail" transform="translate(975 584)">
      <path id="mail-2" data-name="mail" d="M3.015,6.424A1.586,1.586,0,0,1,4.6,4.838H29.964A1.586,1.586,0,0,1,31.55,6.424V24.385a3.172,3.172,0,0,1-3.172,3.172H6.172A3.172,3.172,0,0,1,3,24.385V6.938a1.6,1.6,0,0,1,.015-.223ZM6.172,9.951V24.385H28.378V9.952L20.64,17.689a4.758,4.758,0,0,1-6.729,0ZM8.666,7.959H25.884L18.4,15.446a1.586,1.586,0,0,1-2.243,0Z" transform="translate(-3 -4.838)" fill="#fff" fill-rule="evenodd"/>
    </g>
    <rect id="Rectángulo_6205" data-name="Rectángulo 6205" width="32" height="32" transform="translate(973 579)" fill="none"/>
  </g>
</svg>
