<svg xmlns="http://www.w3.org/2000/svg" width="253.394" height="70.901" viewBox="0 0 253.394 70.901">
  <g id="Grupo_10782" data-name="Grupo 10782" transform="translate(-914 -1032.037)">
    <g id="Grupo_10781" data-name="Grupo 10781" transform="translate(1005.086 1032.037)">
      <path id="Trazado_77" data-name="Trazado 77" d="M23.623,21.979h-.886a12.953,12.953,0,0,1-2.436-.3L2.072,39.914a2.325,2.325,0,0,0,0,3.247L6.8,47.885a2.325,2.325,0,0,0,3.247,0L31.926,26,27.867,21.61Z" transform="translate(-1.057 22.356)" fill="#dd8328"/>
      <path id="Trazado_78" data-name="Trazado 78" d="M45.472,24.841a2.14,2.14,0,0,0-3.1,0L30.563,36.65A2.878,2.878,0,0,1,26.5,32.59L38.276,20.855a2.288,2.288,0,0,0,0-3.211,2.325,2.325,0,0,0-3.247,0L23.293,29.269a2.857,2.857,0,0,1-4.022-4.059L31.043,13.438a2.192,2.192,0,1,0-3.1-3.1L14.658,23.586a12.362,12.362,0,0,0-3.137,11.772l8.893,8.93a12.436,12.436,0,0,0,11.772-3.174L45.472,27.83a2.214,2.214,0,0,0,0-2.989Z" transform="translate(25.067 -9.696)" fill="#dd8328"/>
      <path id="Trazado_79" data-name="Trazado 79" d="M7.311,10.812A2.436,2.436,0,0,0,5.614,10H5.208a2.362,2.362,0,0,0-1.771,1.328,21.034,21.034,0,0,0,4.1,24.134L18.788,46.9a5.941,5.941,0,0,0,4.207,1.734h.48l6.569-.554,28.6,30.851a2.362,2.362,0,0,0,1.734.775h0a2.436,2.436,0,0,0,1.7-.7L66.983,74.1a2.4,2.4,0,0,0,0-3.4Z" transform="translate(-1.315 -8.878)" fill="#dd8328"/>
    </g>
    <path id="Trazado_31376" data-name="Trazado 31376" d="M88.358,272.589l-4.687-1.727a13.816,13.816,0,0,1-8.181-8.185l-1.731-4.683a.447.447,0,0,0-.841,0l-1.727,4.683a13.822,13.822,0,0,1-8.185,8.185l-4.683,1.727a.447.447,0,0,0,0,.841l4.687,1.731a13.82,13.82,0,0,1,8.181,8.181l1.727,4.687a.449.449,0,0,0,.841,0l1.731-4.687a13.81,13.81,0,0,1,8.181-8.181l4.687-1.731a.449.449,0,0,0,0-.841Z" transform="translate(1078.744 792.789)" fill="#a0482d"/>
    <path id="Trazado_31377" data-name="Trazado 31377" d="M88.358,272.589l-4.687-1.727a13.816,13.816,0,0,1-8.181-8.185l-1.731-4.683a.447.447,0,0,0-.841,0l-1.727,4.683a13.822,13.822,0,0,1-8.185,8.185l-4.683,1.727a.447.447,0,0,0,0,.841l4.687,1.731a13.82,13.82,0,0,1,8.181,8.181l1.727,4.687a.449.449,0,0,0,.841,0l1.731-4.687a13.81,13.81,0,0,1,8.181-8.181l4.687-1.731a.449.449,0,0,0,0-.841Z" transform="translate(855.972 795.682)" fill="#a0482d"/>
  </g>
</svg>
