<svg xmlns="http://www.w3.org/2000/svg" xmlns:xlink="http://www.w3.org/1999/xlink" width="104" height="104" viewBox="0 0 104 104">
  <defs>
    <linearGradient id="linear-gradient" x1="0.5" y1="1" x2="0.5" gradientUnits="objectBoundingBox">
      <stop offset="0" stop-color="#ff984e"/>
      <stop offset="1" stop-color="#f17e4f"/>
    </linearGradient>
  </defs>
  <g id="Grupo_10756" data-name="Grupo 10756" transform="translate(-908 -1012)">
    <circle id="Elipse_294" data-name="Elipse 294" cx="52" cy="52" r="52" transform="translate(908 1012)" fill="url(#linear-gradient)"/>
    <g id="language" transform="translate(20 710)">
      <rect id="Path" width="48" height="48" transform="translate(916 330)" fill="rgba(0,0,0,0)"/>
      <path id="Icon" d="M20.5,41A20.5,20.5,0,1,1,41,20.5,20.523,20.523,0,0,1,20.5,41ZM16.605,28.7h0a28.875,28.875,0,0,0,3.915,8.118A28.883,28.883,0,0,0,24.435,28.7h-7.83Zm12.054,0h0A32.077,32.077,0,0,1,25.83,36a16.446,16.446,0,0,0,8.876-7.3Zm-22.325,0A16.385,16.385,0,0,0,15.21,36a32.082,32.082,0,0,1-2.828-7.3Zm9.389-12.3a29.374,29.374,0,0,0-.329,4.1,30.3,30.3,0,0,0,.329,4.1h9.594a30.187,30.187,0,0,0,.328-4.1,29.363,29.363,0,0,0-.328-4.1Zm13.734,0h0a34.175,34.175,0,0,1,.288,4.1,34.178,34.178,0,0,1-.288,4.1h6.93a16.948,16.948,0,0,0,.533-4.1,16.944,16.944,0,0,0-.533-4.1Zm-24.8,0h0a16.945,16.945,0,0,0-.533,4.1,16.946,16.946,0,0,0,.533,4.1h6.93a33.96,33.96,0,0,1-.288-4.1,34.254,34.254,0,0,1,.288-4.1ZM25.83,5a32.072,32.072,0,0,1,2.828,7.3h6.048A16.451,16.451,0,0,0,25.83,5Zm-5.31-.819A28.874,28.874,0,0,0,16.605,12.3h7.83A28.881,28.881,0,0,0,20.52,4.183ZM15.21,5a16.388,16.388,0,0,0-8.876,7.3h6.048A32.065,32.065,0,0,1,15.21,5Z" transform="translate(920 334)" fill="#fff"/>
    </g>
  </g>
</svg>
