<svg xmlns="http://www.w3.org/2000/svg" xmlns:xlink="http://www.w3.org/1999/xlink" width="104" height="104" viewBox="0 0 104 104">
  <defs>
    <linearGradient id="linear-gradient" x1="0.5" y1="1" x2="0.5" gradientUnits="objectBoundingBox">
      <stop offset="0" stop-color="#ff984e"/>
      <stop offset="1" stop-color="#f17e4f"/>
    </linearGradient>
  </defs>
  <g id="Grupo_10753" data-name="Grupo 10753" transform="translate(-908 -572)">
    <circle id="Elipse_288" data-name="Elipse 288" cx="52" cy="52" r="52" transform="translate(908 572)" fill="url(#linear-gradient)"/>
    <g id="create" transform="translate(292 -882)">
      <rect id="Path" width="48" height="48" transform="translate(644 1482)" fill="rgba(0,0,0,0)"/>
      <path id="Icon" d="M8.747,42H0v-8.75L25.805,7.442l8.748,8.75L8.748,42ZM25.805,14.044h0L4.666,35.185v2.148H6.812L27.951,16.193l-2.146-2.148ZM37.05,13.7l0,0L28.3,4.945,32.571.676a2.339,2.339,0,0,1,3.29,0l5.46,5.46a2.323,2.323,0,0,1,0,3.288l-4.269,4.27Z" transform="translate(647 1485)" fill="#fff"/>
    </g>
  </g>
</svg>
