<svg xmlns="http://www.w3.org/2000/svg" xmlns:xlink="http://www.w3.org/1999/xlink" width="457" height="320" viewBox="0 0 457 320">
  <defs>
    <filter id="Trazado_32" x="220.518" y="96.907" width="59.675" height="53.566" filterUnits="userSpaceOnUse">
      <feOffset dy="3" input="SourceAlpha"/>
      <feGaussianBlur stdDeviation="3" result="blur"/>
      <feFlood flood-opacity="0.161"/>
      <feComposite operator="in" in2="blur"/>
      <feComposite in="SourceGraphic"/>
    </filter>
    <filter id="Trazado_37" x="174.405" y="156.169" width="135.111" height="101.495" filterUnits="userSpaceOnUse">
      <feOffset dy="3" input="SourceAlpha"/>
      <feGaussianBlur stdDeviation="3" result="blur-2"/>
      <feFlood flood-opacity="0.161"/>
      <feComposite operator="in" in2="blur-2"/>
      <feComposite in="SourceGraphic"/>
    </filter>
    <filter id="Trazado_33" x="245.516" y="109.591" width="63.315" height="67.207" filterUnits="userSpaceOnUse">
      <feOffset dy="3" input="SourceAlpha"/>
      <feGaussianBlur stdDeviation="3" result="blur-3"/>
      <feFlood flood-opacity="0.161"/>
      <feComposite operator="in" in2="blur-3"/>
      <feComposite in="SourceGraphic"/>
    </filter>
    <filter id="Trazado_35" x="147.75" y="30.965" width="105.771" height="216.52" filterUnits="userSpaceOnUse">
      <feOffset dy="3" input="SourceAlpha"/>
      <feGaussianBlur stdDeviation="3" result="blur-4"/>
      <feFlood flood-opacity="0.161"/>
      <feComposite operator="in" in2="blur-4"/>
      <feComposite in="SourceGraphic"/>
    </filter>
  </defs>
  <g id="Grupo_10763" data-name="Grupo 10763" transform="translate(-711 -574)">
    <rect id="Rectángulo_6190" data-name="Rectángulo 6190" width="457" height="320" transform="translate(711 574)" fill="#fff"/>
    <g id="Grupo_52" data-name="Grupo 52" transform="translate(-4682 -6982)">
      <text id="GASPRE" transform="translate(5580.913 7833.708)" fill="#252831" font-size="21" font-family="Gilroy-Bold, Gilroy ☞" font-weight="700"><tspan x="0" y="0">GASPRE</tspan></text>
      <g id="Grupo_7" data-name="Grupo 7" transform="translate(5550 7593)">
        <g transform="matrix(1, 0, 0, 1, -157, -37)" filter="url(#Trazado_32)">
          <path id="Trazado_32-2" data-name="Trazado 32" d="M1105.024,272.025a71.344,71.344,0,0,0-29.615-12.765,76.3,76.3,0,0,1-11.446,26.438c.243.008.484.016.726.027.183.009.363.023.547.033q.787.047,1.567.12c.2.018.391.039.587.06q.8.087,1.594.2c.152.022.3.042.456.066q2.093.329,4.117.845l.144.039q.929.242,1.842.523l.321.1q.868.274,1.72.582l.234.084a43.972,43.972,0,0,1,5.737,2.6l.075.042q.9.492,1.778,1.022l.036.021c1.167.71,2.3,1.465,3.4,2.277" transform="translate(-833.98 -156.06)" fill="#18994b" stroke="#18994b" stroke-width="0.5"/>
        </g>
        <path id="Trazado_34" data-name="Trazado 34" d="M1021.392,345.93h40.722a44.047,44.047,0,0,0-20.245-28.542l-.036-.022q-.877-.532-1.778-1.022l-.076-.041a43.8,43.8,0,0,0-5.738-2.6l-.234-.085q-.852-.308-1.719-.582l-.321-.1q-.912-.28-1.842-.522l-.144-.04q-2.023-.518-4.117-.844c-.152-.024-.3-.043-.455-.065q-.793-.116-1.595-.2c-.2-.021-.391-.042-.588-.06q-.779-.075-1.567-.12c-.183-.01-.364-.025-.547-.033-.7-.033-1.4-.054-2.1-.054a44.093,44.093,0,0,0-42.167,56.944v0l.005-.022a44.4,44.4,0,0,0,4.08,9.344c.173.3.346.594.527.885l.031.05q.535.865,1.106,1.7c.187.276.385.544.579.816.21.293.418.588.635.875.291.386.594.765.9,1.143.131.163.26.327.394.488.358.433.729.857,1.106,1.278.089.1.177.2.266.3q.61.667,1.25,1.311l.208.209c.282.281.575.552.865.825.169.159.334.324.5.479l.182.165c.4.364.814.718,1.231,1.067.062.053.124.108.187.161l.243.2c.45.367.906.728,1.373,1.079l.026.02c.136.1.275.2.411.3.434.318.869.634,1.317.937.263.179.534.347.8.52.331.213.657.432,1,.639l.019.011a43.85,43.85,0,0,0,4.056,2.187l.061.031c.345.162.692.315,1.038.467.141.062.28.126.42.186s.281.121.421.179c.383.16.767.307,1.153.455.207.08.413.164.621.24l.156.057c.412.15.826.283,1.241.42.251.082.5.171.752.249.3.093.6.172.9.258.318.09.637.181.956.264q.41.107.823.206c.358.086.717.165,1.077.242.278.059.553.122.832.176q.85.165,1.709.3c.322.049.646.087.969.129.306.04.613.08.92.113.348.038.7.07,1.049.1.291.025.583.045.876.064.349.022.7.045,1.047.06-.049,0-.1,0-.146,0-.2-.009-.4-.022-.6-.034-.226-.013-.454-.022-.68-.039.3.023.6.049.895.064.148.008.3.018.446.024.548.024,1.1.036,1.645.039.146,0,.293,0,.44,0,.533,0,1.065-.017,1.6-.038.168-.007.337-.01.506-.018.483-.024.965-.063,1.446-.1.22-.019.44-.032.66-.054.369-.036.736-.086,1.1-.132.127-.016.254-.036.382-.052l.03,0q.711-.094,1.417-.213l.152-.026q1.159-.2,2.308-.456l.011,0,.014,0a43.789,43.789,0,0,0,13.526-5.557l.056-.035c.507-.318,1.012-.642,1.508-.982.389-.266.779-.528,1.16-.808.09-.065.176-.136.266-.2.5-.375,1-.757,1.492-1.156.051-.041.1-.084.151-.125q.794-.652,1.567-1.344l.07-.065q.805-.729,1.584-1.505l.017-.017.021-.02q.67-.672,1.311-1.37l.047-.051q.625-.685,1.221-1.395l.093-.112q.563-.674,1.1-1.37l.172-.228q.485-.639.946-1.3c.091-.13.18-.261.27-.392q.4-.585.785-1.183c.126-.2.248-.4.37-.594.213-.345.423-.691.627-1.041.155-.268.306-.54.456-.813.164-.3.329-.594.486-.9.17-.326.334-.659.5-.992.1-.2.2-.4.3-.608h-.019l0,0c-.125.265-.259.525-.39.787-.058.117-.115.237-.175.353l-.038.074c.1-.2.2-.412.306-.618.147-.3.295-.6.436-.9a43.677,43.677,0,0,0,3.119-9.375h-40.721Zm36.525,29.816c-.04.075-.079.151-.119.227-.091.169-.181.34-.274.508-.014.025-.028.049-.042.074C1057.63,376.288,1057.773,376.017,1057.917,375.746Zm-1.257,2.217c.212-.348.416-.7.619-1.057l.127-.221c-.094.164-.187.328-.283.492-.138.238-.275.477-.416.712l-.048.076Zm-7.924,9.621c-.43.393-.869.776-1.312,1.153-.069.058-.136.119-.2.176q.777-.652,1.524-1.336Zm-1.54,1.351.068-.059Zm1.617-1.419Zm.114-.107Zm6.219-7.142Zm.652-.945c-.108.164-.225.323-.336.486h0C1055.574,379.645,1055.691,379.487,1055.8,379.323Zm-.672.972h0q-.531.761-1.093,1.494h0Q1054.6,381.053,1055.128,380.294Zm-4.718,5.671h0q-.661.672-1.347,1.313h0Q1049.75,386.637,1050.41,385.965Zm-3.242,2.992-.01.009q-.79.66-1.611,1.283Q1046.375,389.623,1047.168,388.957Zm-23.313,9.919a44.216,44.216,0,0,1-4.853.268c-.232,0-.463-.013-.7-.016.229,0,.456.013.687.013A44.529,44.529,0,0,0,1023.855,398.876Z" transform="translate(-947.41 -218.382)" fill="#fff"/>
        <g id="Grupo_6" data-name="Grupo 6" transform="translate(26.677 125.498)">
          <path id="Trazado_36" data-name="Trazado 36" d="M989.728,517.285h0v0Z" transform="translate(-981.329 -444.825)" fill="#18994b" stroke="#18994b" stroke-width="0.5"/>
          <g transform="matrix(1, 0, 0, 1, -183.68, -162.5)" filter="url(#Trazado_37)">
            <path id="Trazado_37-2" data-name="Trazado 37" d="M1089.871,386.585h-.016a73.711,73.711,0,0,0-.706-9.147h-68.543v-.031h.066l-.336-.807a1.971,1.971,0,0,0-2.575-1.06l-10,4.163a1.968,1.968,0,0,0-1.061,2.576l1.074,2.573-4.244,1.863-6.473,2.937a1.964,1.964,0,0,0-.629.453l-8.9,9.583a1.97,1.97,0,0,0,.1,2.783l1.443,1.341a1.97,1.97,0,0,0,2.783-.1l8.228-8.851a1.963,1.963,0,0,1,.652-.463l4.871-2.14h0l1.04-.455,13.945,3.885v.037h40.722a43.7,43.7,0,0,1-3.077,9.286l0-.01h.03c-.062.136-.131.267-.2.4h.008c-.1.206-.2.4-.3.609-.163.332-.324.665-.5.992-.158.3-.323.6-.486.9-.151.272-.3.544-.456.813-.2.352-.415.7-.627,1.041-.123.2-.245.4-.371.594-.255.4-.517.793-.785,1.183-.09.131-.179.263-.27.393q-.463.659-.946,1.3l-.173.228q-.536.7-1.1,1.369c-.032.037-.062.075-.094.112q-.6.712-1.22,1.395l-.047.051q-.641.7-1.312,1.37l-.019.02-.017.017q-.775.774-1.585,1.505l-.071.065q-.769.692-1.566,1.345c-.051.042-.1.085-.151.126q-.735.6-1.492,1.156c-.09.066-.177.136-.266.2-.38.278-.77.543-1.16.808a43.861,43.861,0,0,1-19.4,7.332c-.369.047-.736.1-1.105.132-.22.022-.439.035-.659.053-.481.041-.963.078-1.447.1-.168.008-.337.012-.506.018-.531.021-1.063.036-1.6.038-.147,0-.293,0-.44,0-.548,0-1.1-.015-1.645-.039-.149-.007-.3-.016-.445-.024q-.8-.043-1.6-.116c-.175-.016-.348-.033-.523-.051q-.737-.076-1.474-.177c-.225-.031-.45-.063-.674-.1q-.628-.1-1.253-.212c-.3-.054-.6-.111-.9-.172-.274-.056-.548-.116-.821-.177-.157-.035-.315-.069-.472-.106-.284-.067-.568-.138-.852-.21l-.338-.087c-.219-.058-.436-.119-.654-.18-.325-.091-.65-.184-.974-.283-.056-.017-.115-.032-.172-.05l-.054-.017c-.133-.042-.264-.091-.4-.135-.486-.156-.97-.318-1.451-.491h0l-.36-.132c-.069-.026-.137-.056-.207-.082q-.9-.34-1.789-.72l-.116-.049-.055-.025c-1.094-.474-2.175-.988-3.235-1.555l-.01-.006q-.933-.5-1.846-1.045c-.061-.037-.12-.077-.182-.114l-.051-.032c-.026-.015-.053-.029-.078-.045-.087-.053-.171-.11-.257-.164-.414-.256-.828-.513-1.235-.784-.088-.059-.173-.122-.26-.18l-.062-.04c-.1-.07-.2-.145-.3-.216-.377-.261-.756-.519-1.126-.794-.087-.064-.171-.132-.258-.2l-.044-.032c-.136-.1-.268-.212-.4-.316l-.118-.092c-.3-.229-.593-.451-.883-.689-.075-.061-.146-.124-.221-.185l-.039-.032c-.2-.17-.4-.348-.6-.522-.137-.118-.273-.234-.41-.353s-.263-.223-.393-.339l-.146-.135-.05-.046q-.686-.626-1.344-1.281l-.048-.048-.038-.037.037.035-.158-.159q-.638-.643-1.249-1.311c-.089-.1-.177-.2-.266-.3-.376-.419-.746-.844-1.106-1.277-.134-.161-.263-.326-.395-.489-.3-.377-.606-.756-.9-1.143-.216-.288-.425-.582-.634-.875-.194-.271-.391-.54-.579-.816-.381-.56-.751-1.127-1.105-1.7-.011-.017-.022-.032-.032-.049-.181-.294-.353-.592-.527-.891a43.786,43.786,0,0,1-4.085-9.322v0c-4.317,13.969-4.345,30.495,5.642,48.4h0v0a49.617,49.617,0,0,1-7.371-4.684q.749.581,1.516,1.146a71.609,71.609,0,0,0,114.026-56.654h.021c0-.2-.007-.4-.008-.607C1089.864,386.895,1089.871,386.741,1089.871,386.585Zm-68.276,4.74a.631.631,0,0,1-.806.6l-7.48-2.153a1.878,1.878,0,0,1-.79-.456l1.437-.733a2.6,2.6,0,0,1,1.488-.275l6.141.653.045,0Zm.051-3.36-6.089-.647a3.587,3.587,0,0,0-2.051.378l-1.5.761a1.888,1.888,0,0,1-.009-.982l.19-.734a1.894,1.894,0,0,1,2.034-1.409l7.449.792v0Z" transform="translate(-789.61 -212.89)" fill="#18994b" stroke="#18994b" stroke-width="0.5"/>
          </g>
          <path id="Trazado_38" data-name="Trazado 38" d="M1051.266,394.849a1.9,1.9,0,0,0-2.034,1.409l-.19.734a1.882,1.882,0,0,0,.009.982l1.5-.761a3.583,3.583,0,0,1,2.052-.378l6.089.647.027-1.845v0Z" transform="translate(-1010.324 -384.906)" fill="#fff"/>
          <path id="Trazado_39" data-name="Trazado 39" d="M1053.045,400.668a2.6,2.6,0,0,0-1.488.275l-1.437.733a1.888,1.888,0,0,0,.789.456l7.481,2.154a.631.631,0,0,0,.806-.6l.036-2.364-.045,0Z" transform="translate(-1010.882 -387.751)" fill="#fff"/>
        </g>
        <g transform="matrix(1, 0, 0, 1, -157, -37)" filter="url(#Trazado_33)">
          <path id="Trazado_33-2" data-name="Trazado 33" d="M1128.865,284.22c15.137,11.146,25.732,28.9,28.5,48.606H1129.57a44.009,44.009,0,0,0-16.885-26.295Z" transform="translate(-857.82 -168.28)" fill="#1a1e25" stroke="#1a1e25" stroke-width="0.5"/>
        </g>
        <g transform="matrix(1, 0, 0, 1, -157, -37)" filter="url(#Trazado_35)">
          <path id="Trazado_35-2" data-name="Trazado 35" d="M1008.243,129.632s-6.836,48.792-49.158,73.4c-.122.072-.242.146-.366.216-.108.051-.213.105-.32.157a71.837,71.837,0,0,0-34.488,42.778,82.493,82.493,0,0,0-2.111,9.667,71.621,71.621,0,0,0-.758,9.913q0,2.672.153,5.215c.016.241.031.481.05.723.013.178.027.354.041.531a71.462,71.462,0,0,0,27.459,50.672,49.582,49.582,0,0,0,7.372,4.684c-9.994-17.914-9.961-34.45-5.635-48.425,8.2-26.5,31.854-43.795,31.854-43.795a72.059,72.059,0,0,0,11.691-13.1,76.264,76.264,0,0,0,11.444-26.438c3.108-13.427,2.7-25.675,2.772-33.09C1008.382,148.036,1008.243,129.632,1008.243,129.632Z" transform="translate(-764.04 -92.63)" fill="#cd211f" stroke="#cd211f" stroke-width="0.5"/>
        </g>
      </g>
    </g>
  </g>
</svg>
