<svg xmlns="http://www.w3.org/2000/svg" width="48" height="48" viewBox="0 0 48 48">
  <g id="Grupo_10768" data-name="Grupo 10768" transform="translate(-9433 -616)">
    <rect id="Rectángulo_6194" data-name="Rectángulo 6194" width="48" height="48" transform="translate(9433 616)" fill="none"/>
    <g id="Grupo_10767" data-name="Grupo 10767" transform="translate(8106.378 -522.811)">
      <g id="Grupo_10745" data-name="Grupo 10745" transform="translate(1331.621 1143.811)">
        <path id="Trazado_31365" data-name="Trazado 31365" d="M893.823,680.475ZM911.992,648.3h0Z" transform="translate(-883.908 -646.249)" fill="none" stroke="#fff" stroke-miterlimit="10" stroke-width="1"/>
        <g id="Grupo_10744" data-name="Grupo 10744" transform="translate(7.665 7.493)">
          <path id="Trazado_31366" data-name="Trazado 31366" d="M900.06,683.295a11.334,11.334,0,1,0-11.335-11.331A11.346,11.346,0,0,0,900.06,683.295Zm-8.586-11.331a8.586,8.586,0,1,1,8.586,8.586A8.6,8.6,0,0,1,891.474,671.964Z" transform="translate(-888.725 -660.626)" fill="#fff"/>
        </g>
        <path id="Trazado_31367" data-name="Trazado 31367" d="M901.668,681.309h-22.61a7.7,7.7,0,0,1-7.7-7.7V651.349a7.7,7.7,0,0,1,7.7-7.7h22.61a7.7,7.7,0,0,1,7.7,7.7v22.264A7.7,7.7,0,0,1,901.668,681.309Zm-22.61-34.848a4.893,4.893,0,0,0-4.887,4.888v22.264a4.893,4.893,0,0,0,4.887,4.888h22.61a4.894,4.894,0,0,0,4.888-4.888V651.349a4.893,4.893,0,0,0-4.888-4.888Z" transform="translate(-871.363 -643.653)" fill="#fff"/>
      </g>
      <path id="Trazado_31368" data-name="Trazado 31368" d="M938.163,657.7a1.789,1.789,0,1,0,1.791,1.791A1.792,1.792,0,0,0,938.163,657.7Z" transform="translate(423.947 492.314)" fill="#fff"/>
    </g>
  </g>
</svg>
