<svg xmlns="http://www.w3.org/2000/svg" width="457" height="320" viewBox="0 0 457 320">
  <g id="Grupo_10764" data-name="Grupo 10764" transform="translate(-1168 -574)">
    <rect id="Rectángulo_6191" data-name="Rectángulo 6191" width="457" height="320" transform="translate(1168 574)" fill="#fff"/>
    <g id="Anáhuac_Mayab_logo" transform="translate(1190.8 689.04)">
      <g id="_6c3f21ff" data-name="#6c3f21ff" transform="translate(6.2 2.96)">
        <path id="Trazado_31173" data-name="Trazado 31173" d="M130.387,3.2l.721.057c1.054,2.2,2.17,4.377,3.233,6.579-.537.011-1.077.023-1.613.04-.338-.631-.682-1.256-1.023-1.883q-1.006.081-2.014.159c-.2.662-.4,1.329-.594,1.994l-.957.128c.739-2.36,1.412-4.744,2.247-7.073m.071,2.145q-.268,1.052-.528,2.108.81-.051,1.619-.108Q131,6.347,130.458,5.345Z" transform="translate(-93.503 -3.132)" fill="#6c3f21"/>
        <path id="Trazado_31174" data-name="Trazado 31174" d="M154.076,2.96a20.079,20.079,0,0,1,3.982.341,2.618,2.618,0,0,1,1.966,1.724c.437,1.628-.094,3.73-1.744,4.46-1.469.6-3.09.193-4.61.054.122-2.2.321-4.383.406-6.579m1.616.628a34.028,34.028,0,0,0-.429,5.687,8.389,8.389,0,0,0,2.136-.429,2.819,2.819,0,0,0,1.17-2.21,2.537,2.537,0,0,0-.878-2.48A8.256,8.256,0,0,0,155.692,3.588Z" transform="translate(-111.781 -2.96)" fill="#6c3f21"/>
        <path id="Trazado_31175" data-name="Trazado 31175" d="M469.65,4.17c.284.017.571.037.858.054.872,2.227,1.866,4.4,2.735,6.63q-.835.026-1.665.054-.371-.963-.733-1.932-1.142,0-2.278.017c-.187.622-.375,1.247-.557,1.872L467,10.984c.81-2.3,1.738-4.553,2.65-6.814m-.69,4.116,1.69,0c-.327-.719-.642-1.443-.952-2.17Q469.328,7.2,468.96,8.286Z" transform="translate(-336.108 -3.826)" fill="#6c3f21"/>
        <path id="Trazado_31176" data-name="Trazado 31176" d="M491.25,4.178c1.554.034,3.17-.216,4.67.287,2.406,1.074,2.108,5.218-.355,6.056a13.722,13.722,0,0,1-4.312.341c0-2.227,0-4.457,0-6.684m1.562.571q-.132,2.765,0,5.531a8.82,8.82,0,0,0,2.1-.44,2.836,2.836,0,0,0,.96-2.329,2.892,2.892,0,0,0-.753-2.253A7.029,7.029,0,0,0,492.812,4.749Z" transform="translate(-353.47 -3.809)" fill="#6c3f21"/>
        <path id="Trazado_31177" data-name="Trazado 31177" d="M1018.74,4.07a43.4,43.4,0,0,0,8.968.006c-.2,7.476-.608,14.944-.6,22.426,2.164-2.233,4.684-4.514,7.891-4.931a9.244,9.244,0,0,1,9.343,5.269,15.122,15.122,0,0,1,.974,6.19c0,6.959-.014,13.916.011,20.875a45.676,45.676,0,0,0-8.769.011c.159-3.162.284-6.323.347-9.487a84.671,84.671,0,0,0-.079-12.183,5.825,5.825,0,0,0-2.207-4.215,4.171,4.171,0,0,0-5.531.489,8.853,8.853,0,0,0-1.818,4.911,97.949,97.949,0,0,0-.117,10.962c.023,3.176.19,6.349.207,9.524a44.852,44.852,0,0,0-8.6,0c.105-2.7.227-5.4.221-8.107.068-7.383.259-14.768.224-22.153C1019.163,17.125,1019.027,10.595,1018.74,4.07Z" transform="translate(-731.125 -3.755)" fill="#6c3f21"/>
        <path id="Trazado_31178" data-name="Trazado 31178" d="M527.343,5.06a24.968,24.968,0,0,1,3.988.8,2.646,2.646,0,0,1,1.733,2.326c.159,1.613-.739,3.522-2.443,3.872a16.012,16.012,0,0,1-4.411-.307c.327-2.238.741-4.46,1.133-6.687m1.173,2.082a41.7,41.7,0,0,0-.656,4.272c.835-.074,1.8.114,2.525-.415a4,4,0,0,0,.971-3.363,2.149,2.149,0,0,0-2.326-1.551C528.676,6.31,528.641,6.779,528.517,7.142Z" transform="translate(-378.5 -4.463)" fill="#6c3f21"/>
        <path id="Trazado_31179" data-name="Trazado 31179" d="M100.12,8.255a15.015,15.015,0,0,1,4.5-.7,2.35,2.35,0,0,1,1.957,1.258,4.5,4.5,0,0,1,.273,3.312,3.022,3.022,0,0,1-1.872,1.835,19.133,19.133,0,0,1-3.414.781c-.452-2.17-.988-4.323-1.446-6.491m1.653.2c.372,1.818.793,3.627,1.23,5.434.8-.324,1.889-.437,2.284-1.324a3.443,3.443,0,0,0-.844-3.874C103.688,8.059,102.651,8.389,101.773,8.46Z" transform="translate(-73.442 -6.239)" fill="#6c3f21"/>
        <path id="Trazado_31180" data-name="Trazado 31180" d="M439.59,8.35c1.6-.332,3.244-.989,4.891-.622,2.363.824,2.727,4.63.594,5.928a11.321,11.321,0,0,1-4.119,1.2c-.491-2.159-1.051-4.309-1.366-6.5m1.534.2c.341,1.807.767,3.593,1.221,5.371a7.632,7.632,0,0,0,1.929-.756,2.653,2.653,0,0,0,.511-2.494,2.787,2.787,0,0,0-1.221-2.042A7.477,7.477,0,0,0,441.124,8.551Z" transform="translate(-316.484 -6.296)" fill="#6c3f21"/>
        <path id="Trazado_31181" data-name="Trazado 31181" d="M192.2,10.1l.892.023c.17,2.395.423,4.781.591,7.175q-.754-.115-1.511-.227c-.062-.716-.125-1.432-.182-2.145l-2.02-.6c-.418.525-.838,1.051-1.256,1.576-.227-.045-.685-.131-.915-.176,1.446-1.892,2.92-3.761,4.4-5.624m-1.829,3.622c.56.179,1.122.361,1.682.543-.105-.747-.2-1.494-.3-2.238C191.285,12.588,190.828,13.154,190.371,13.722Z" transform="translate(-136.216 -8.072)" fill="#6c3f21"/>
        <path id="Trazado_31182" data-name="Trazado 31182" d="M959.672,9.943a3.268,3.268,0,0,1,4.127.656,3.464,3.464,0,0,1-.3,4.034,12.6,12.6,0,0,1-2.338,1.909c-1.971,1.344-3.968,2.656-5.9,4.051a5.852,5.852,0,0,1-2.426,1.219,20.945,20.945,0,0,1-2.832.04c2.272-3.022,4.624-5.982,6.914-8.993A11.709,11.709,0,0,1,959.672,9.943Z" transform="translate(-681.911 -7.639)" fill="#6c3f21"/>
        <path id="Trazado_31183" data-name="Trazado 31183" d="M553.566,12.12c1.108.477,2.21.966,3.312,1.457-.077.264-.153.525-.227.79-.665-.284-1.329-.568-1.994-.846-.23.551-.457,1.1-.685,1.65.577.332,1.156.659,1.738.989,0,.17.006.514.009.685-.739-.273-1.474-.545-2.213-.815q-.383.98-.753,1.96c.693.423,1.38.861,2.037,1.346a7,7,0,0,1-3.9-1.1C551.711,16.165,552.648,14.145,553.566,12.12Z" transform="translate(-396.169 -9.518)" fill="#6c3f21"/>
        <path id="Trazado_31184" data-name="Trazado 31184" d="M85.3,14.515l1.491-.545c.761,2.093,1.622,4.15,2.457,6.212l-1.491.477Q86.5,17.6,85.3,14.515Z" transform="translate(-62.831 -10.843)" fill="#6c3f21"/>
        <path id="Trazado_31185" data-name="Trazado 31185" d="M426.07,15.368q.754-.17,1.517-.338c.824,2,1.747,3.963,2.539,5.979l-1.389.554C427.837,19.5,426.834,17.487,426.07,15.368Z" transform="translate(-306.805 -11.601)" fill="#6c3f21"/>
        <path id="Trazado_31186" data-name="Trazado 31186" d="M212.66,22.923c1.2-1.98,2.38-3.974,3.639-5.923a5.845,5.845,0,0,1,1.006,2.184,37,37,0,0,0,.98,4.187c.753-1.193,1.457-2.412,2.142-3.642.216.051.642.153.858.207-1.2,2.022-2.4,4.045-3.642,6.039-1.335-1.909-1.2-4.352-1.9-6.5a30.382,30.382,0,0,0-2.21,3.772C213.237,23.141,212.947,23.033,212.66,22.923Z" transform="translate(-154.014 -13.012)" fill="#6c3f21"/>
        <path id="Trazado_31187" data-name="Trazado 31187" d="M700.325,19.287a23.721,23.721,0,0,0,4.709-.017c.94,2.48,1.738,5.008,2.63,7.5q5.624,16.246,11.689,32.334a58.206,58.206,0,0,1,2.017,5.655c-1.486-.031-2.965-.159-4.448-.21a54.956,54.956,0,0,0-5.721.247c-1.27-4.488-2.548-8.973-4.056-13.387a128.941,128.941,0,0,0-13.782-.111c-1.463,4.431-2.974,8.862-4.028,13.416a35.073,35.073,0,0,0-5.755-.017c.9-3.008,2.218-5.866,3.306-8.808,4.749-12.1,9.484-24.218,13.439-36.606m-2.6,19.921c-.954,2.656-1.983,5.289-2.738,8.01q5.322.047,10.644,0c-1.488-5.164-3.482-10.163-5.147-15.271C699.521,34.353,698.635,36.785,697.72,39.208Z" transform="translate(-491.168 -14.637)" fill="#6c3f21"/>
        <path id="Trazado_31188" data-name="Trazado 31188" d="M67.747,21.622c.565-.747,1.579-.764,2.417-.952.034.321.065.642.1.966a5.485,5.485,0,0,0-1.721.241c-.3.276-.281.724-.327,1.1a28.376,28.376,0,0,0,3.281.565c1.2.213,1.469,1.812,1,2.761-.46,1.082-1.7,1.366-2.7,1.721-.131-.383-.261-.767-.392-1.148.761-.057,1.784.222,2.292-.523a3.84,3.84,0,0,0,.048-.954c-1.145-.52-2.463-.3-3.625-.744A2.051,2.051,0,0,1,67.747,21.622Z" transform="translate(-49.905 -15.639)" fill="#6c3f21"/>
        <path id="Trazado_31189" data-name="Trazado 31189" d="M410.99,20.874a9.807,9.807,0,0,1,1.835-.614c.026.222.077.668.1.892a9.344,9.344,0,0,0-1.554.386,11.581,11.581,0,0,0-.508,1.247c1.119.128,2.253.122,3.366.318a1.953,1.953,0,0,1,1.131,2.968,4.442,4.442,0,0,1-2.6,1.6c-.156-.437-.31-.878-.466-1.312a10.71,10.71,0,0,0,1.909.02c.491-.253.437-.852.454-1.321-1.136-.79-2.687-.108-3.846-.824A2.119,2.119,0,0,1,410.99,20.874Z" transform="translate(-295.343 -15.346)" fill="#6c3f21"/>
        <path id="Trazado_31190" data-name="Trazado 31190" d="M565.57,26.126c1.133-1.878,2.275-3.755,3.5-5.576.418.256.838.514,1.261.77-.983,1.676-2.028,3.315-3.017,4.988.574.341,1.153.679,1.733,1.011-.1.276-.193.548-.287.824A34.453,34.453,0,0,1,565.57,26.126Z" transform="translate(-406.679 -15.554)" fill="#6c3f21"/>
        <path id="Trazado_31191" data-name="Trazado 31191" d="M393.146,33.209a1.564,1.564,0,0,1,2.133.619,6.728,6.728,0,0,1,.088,2.122c1.142.395,2.292.77,3.431,1.179a9.006,9.006,0,0,1-1.4.94,12.655,12.655,0,0,1-3.056-.827q.814,1.082,1.667,2.136c-.369.347-.739.69-1.1,1.037-1.491-1.682-2.931-3.409-4.355-5.147a12.244,12.244,0,0,1,2.6-2.059m-1.065,1.352a26.186,26.186,0,0,0,1.832,2.173,4.433,4.433,0,0,0,.378-1.386,1.757,1.757,0,0,0-.869-1.037A6.341,6.341,0,0,0,392.081,34.561Z" transform="translate(-281.374 -24.486)" fill="#6c3f21"/>
        <path id="Trazado_31192" data-name="Trazado 31192" d="M47.653,34.435a1.65,1.65,0,0,1,2.116.443,17.542,17.542,0,0,1,.457,2.2,14.4,14.4,0,0,0,3.156,1.068L52.155,39.3c-1.04-.3-2.076-.611-3.119-.892.577.7,1.17,1.375,1.767,2.054-.381.369-.764.736-1.145,1.1-1.471-1.67-2.943-3.343-4.508-4.928a14.76,14.76,0,0,1,2.5-2.2m-.991,1.338a23.777,23.777,0,0,0,1.954,2.218,5.482,5.482,0,0,0,.338-1.449,1.588,1.588,0,0,0-.79-.909A3.756,3.756,0,0,0,46.661,35.773Z" transform="translate(-34.086 -25.342)" fill="#6c3f21"/>
        <path id="Trazado_31193" data-name="Trazado 31193" d="M239.741,39.249a11.752,11.752,0,0,1,2.875-1.352c.682-.159,1.108.486,1.639.77-.838.048-1.679.071-2.517.088-.551,2.5-1.957,4.693-2.747,7.116q-.609-.554-1.216-1.108c.261-.687.525-1.375.787-2.062a10.689,10.689,0,0,0-1.454-1.25,8.865,8.865,0,0,0-2.031.65c-.133-.151-.4-.454-.537-.605,1.7-.818,3.5-1.423,5.2-2.247m-1.954,1.639q.545.643,1.1,1.284c.3-.665.611-1.324.909-1.988C239.122,40.414,238.454,40.655,237.787,40.888Z" transform="translate(-169.679 -27.955)" fill="#6c3f21"/>
        <path id="Trazado_31194" data-name="Trazado 31194" d="M585.66,44.393c1.974-1.264,3.906-2.6,5.977-3.713.065,1.895-.954,3.539-1.613,5.246,1.826-.372,3.636-1.085,5.53-.761-1.463,1.809-3.079,3.485-4.661,5.19l-1.131-1.113a41.647,41.647,0,0,0,2.832-3.093c-1.559.338-3.093.773-4.644,1.142.466-1.477,1.065-2.9,1.579-4.363-1.162.662-2.267,1.417-3.366,2.173C586.038,44.924,585.785,44.572,585.66,44.393Z" transform="translate(-421.063 -29.966)" fill="#6c3f21"/>
        <path id="Trazado_31195" data-name="Trazado 31195" d="M377.62,49.415a36,36,0,0,1,2.315-2.895c.165.114.494.338.659.449-.46.582-.917,1.17-1.372,1.758a13.156,13.156,0,0,0,1.375,1,15.429,15.429,0,0,0,1.483-1.344c.133.074.4.224.537.3q-.614.869-1.23,1.736c.571.48,1.139.957,1.716,1.432.472-.579.937-1.165,1.4-1.747.2.193.406.383.614.577q-1.129,1.474-2.318,2.9C381.026,52.249,379.344,50.806,377.62,49.415Z" transform="translate(-272.117 -34.147)" fill="#6c3f21"/>
        <path id="Trazado_31196" data-name="Trazado 31196" d="M30.85,52.833q1.138-1.466,2.267-2.943c.168.1.5.287.665.383-.415.628-.835,1.253-1.247,1.88.466.341.929.685,1.395,1.025.56-.614,1.133-1.449,2.076-1.366-.392.682-.838,1.329-1.17,2.042a13.859,13.859,0,0,0,1.65,1.309c.477-.611.949-1.224,1.423-1.835l.511.633q-1.074,1.47-2.184,2.92C34.429,55.545,32.628,54.2,30.85,52.833Z" transform="translate(-23.848 -36.559)" fill="#6c3f21"/>
        <path id="Trazado_31197" data-name="Trazado 31197" d="M252.78,60.63c1.932-1.094,3.846-2.216,5.709-3.42q.354.686.716,1.378c-.727.474-1.454.946-2.176,1.432q.712,1.133,1.426,2.267c.861-.437,1.724-.866,2.613-1.241.057.469.139.935.165,1.409-1.7,1.287-3.659,2.19-5.462,3.323q-.392-.652-.784-1.3,1.372-.831,2.73-1.69c-.474-.79-.946-1.579-1.426-2.363-.943.531-1.878,1.077-2.818,1.6Q253.124,61.334,252.78,60.63Z" transform="translate(-182.738 -41.8)" fill="#6c3f21"/>
        <path id="Trazado_31198" data-name="Trazado 31198" d="M365.757,61.61c1.844,1.65,3.213,3.738,4.874,5.559l-.247.741c-2.432-.247-4.86-.545-7.295-.79.281-.489.562-.983.841-1.474,1.611.207,3.221.412,4.835.579-.8-1.082-1.747-2.034-2.576-3.088C365.831,62.715,365.879,62.121,365.757,61.61Z" transform="translate(-261.714 -44.95)" fill="#6c3f21"/>
        <path id="Trazado_31199" data-name="Trazado 31199" d="M834.338,66.153a9.094,9.094,0,0,1,8.774.926,9.533,9.533,0,0,1,3.309,4.068,16.06,16.06,0,0,1,.815,5.817c-.006,2.46.017,4.917-.054,7.377-.134,4.5.156,9,.023,13.5a36.962,36.962,0,0,0-8.823.111c.057-2.451.349-4.889.412-7.34.068-2.75.136-5.5.122-8.255a39.692,39.692,0,0,0-.258-6.366,7.234,7.234,0,0,0-1.622-3.69,4.281,4.281,0,0,0-4.519-.892A4.53,4.53,0,0,0,830,74a16.619,16.619,0,0,0-1.025,6.371c-.063,5.829.213,11.658.29,17.486-1.236-.065-2.468-.182-3.7-.222-1.648-.054-3.286.134-4.928.224.287-4.593.168-9.2.3-13.8.037-2.554.006-5.11.017-7.664.031-3.4-.261-6.783-.312-10.178a45.475,45.475,0,0,0,8.32,0c-.079,1.5-.128,3.005-.179,4.508C830.376,68.936,832.072,67.1,834.338,66.153Z" transform="translate(-589.289 -47.692)" fill="#6c3f21"/>
        <path id="Trazado_31200" data-name="Trazado 31200" d="M923.292,68.788a16.554,16.554,0,0,1,8.792-2.855,13.482,13.482,0,0,1,7.752,1.946,7.927,7.927,0,0,1,3.579,6.008c.395,6.067-.193,12.146-.014,18.216a4.072,4.072,0,0,0,1.2,3.1,7.763,7.763,0,0,0,2.352.531c-.159.679-.017,1.613-.787,1.943-2.341,1.321-5.477,1.94-7.863.4a9.327,9.327,0,0,1-2.758-3.414,12.525,12.525,0,0,1-2.974,3.022,9.244,9.244,0,0,1-8.232.747,7.544,7.544,0,0,1-4.653-5.55,10.355,10.355,0,0,1,1.341-7.9,9.967,9.967,0,0,1,4.826-3.383c2.349-.912,4.874-1.267,7.223-2.182.92-.386,1.98-.92,2.244-1.98a5.583,5.583,0,0,0-2.682-6.062,6.6,6.6,0,0,0-5.923-.054,17.4,17.4,0,0,0-4.408,3.2,12.873,12.873,0,0,1-.639-4.2,5.077,5.077,0,0,1,1.622-1.534m7.008,14.95a5.631,5.631,0,0,0-2.437,4.622c-.108,1.755-.06,3.718,1.065,5.173,1.292,1.525,3.94,1.128,5.1-.378,1.224-1.582,1.4-3.673,1.417-5.6-.009-2.071.006-4.144.085-6.215C933.819,82.212,931.961,82.775,930.3,83.738Z" transform="translate(-660.035 -48.041)" fill="#6c3f21"/>
        <path id="Trazado_31201" data-name="Trazado 31201" d="M1226.289,68.794a16.53,16.53,0,0,1,9.087-2.86,13.341,13.341,0,0,1,7.453,1.949,7.865,7.865,0,0,1,3.531,5.465,44.424,44.424,0,0,1,.182,5.67c.031,4.266-.278,8.53-.148,12.8A4.618,4.618,0,0,0,1247.6,95.2a7.988,7.988,0,0,0,2.346.531c-.156.679-.014,1.613-.781,1.943-2.23,1.258-5.147,1.88-7.508.611a8.336,8.336,0,0,1-3.093-3.661,12.5,12.5,0,0,1-2.982,3.056,9.247,9.247,0,0,1-8.047.824,7.49,7.49,0,0,1-4.792-5.408c-.781-3.34-.111-7.32,2.653-9.587,2.883-2.287,6.65-2.741,10.047-3.855,1.06-.406,2.346-.841,2.809-1.983a5.532,5.532,0,0,0-2.446-6.192,6.537,6.537,0,0,0-6.093-.156,17.671,17.671,0,0,0-4.4,3.2,12.9,12.9,0,0,1-.659-4.178,5.138,5.138,0,0,1,1.636-1.548m8.34,14.257a5.789,5.789,0,0,0-2.775,2.111,8.841,8.841,0,0,0-.957,5.5,4.509,4.509,0,0,0,1.676,3.4,3.606,3.606,0,0,0,4.582-1.06,9.279,9.279,0,0,0,1.284-5.451c-.011-2.04.042-4.079.062-6.118C1237.211,81.977,1235.91,82.494,1234.629,83.051Z" transform="translate(-876.964 -48.044)" fill="#6c3f21"/>
        <path id="Trazado_31202" data-name="Trazado 31202" d="M1325,69.468a14.962,14.962,0,0,1,10.359-3.994A18.467,18.467,0,0,1,1346,68.454c-.526,1.682-1.074,3.352-1.608,5.028a7.415,7.415,0,0,1-.7,1.65c-.454.128-.917.2-1.372.281a10.2,10.2,0,0,0-2.176-4.931,5.412,5.412,0,0,0-5.888-1.355,6.89,6.89,0,0,0-3.443,3.6,20.716,20.716,0,0,0-1.727,8.794,18.927,18.927,0,0,0,1.079,7.471,8.407,8.407,0,0,0,3.929,4.568,8.231,8.231,0,0,0,7.062,0,14.061,14.061,0,0,0,3-2.227c.318.256.642.514.972.77a22.321,22.321,0,0,1-1.273,3.627A3.663,3.663,0,0,1,1342,97.279a17.848,17.848,0,0,1-11.126.889,12.536,12.536,0,0,1-5.959-3.071,16.408,16.408,0,0,1-4.369-7.826,22.247,22.247,0,0,1-.31-7.9A16.541,16.541,0,0,1,1325,69.468Z" transform="translate(-946.827 -47.712)" fill="#6c3f21"/>
        <path id="Trazado_31203" data-name="Trazado 31203" d="M19.3,67.62c1.716,1.852,3.474,3.67,5.053,5.641a6.5,6.5,0,0,1-2.292.344c-1.849-.145-3.7-.321-5.548-.5a9.233,9.233,0,0,1,1.062-1.434c1.545-.014,3.073.287,4.619.321-1.02-1.278-2.145-2.468-3.278-3.647C19.01,68.165,19.2,67.8,19.3,67.62Z" transform="translate(-13.581 -49.253)" fill="#6c3f21"/>
        <path id="Trazado_31204" data-name="Trazado 31204" d="M1123.19,68.106a53.267,53.267,0,0,0,8.854.009q-.516,6.353-.517,12.74a75.2,75.2,0,0,0,.085,8.354,7.424,7.424,0,0,0,1.951,4.508,4.1,4.1,0,0,0,5.61.04,7.339,7.339,0,0,0,1.855-3.809,42.652,42.652,0,0,0,.415-8.255c.014-4.528-.278-9.053-.241-13.581a45.4,45.4,0,0,0,8.564-.031c-.3,7.184-.292,14.376-.292,21.565-.074,3.372.247,6.735.239,10.1a41.377,41.377,0,0,0-8.218-.028c.028-1.488.077-2.977.088-4.465-1.713,1.824-3.372,3.94-5.86,4.71a10.244,10.244,0,0,1-8.953-1.452,8.472,8.472,0,0,1-3.119-4.792,25.561,25.561,0,0,1-.44-6.349c.023-4.073-.028-8.147.023-12.22C1123.3,72.8,1123.227,70.455,1123.19,68.106Z" transform="translate(-805.906 -49.582)" fill="#6c3f21"/>
        <path id="Trazado_31205" data-name="Trazado 31205" d="M604.09,74.526c2.463-.182,4.914-.767,7.391-.568a3.945,3.945,0,0,1-.991,1.861c-1.238,1.432-2.454,2.88-3.627,4.366-.253-.548-.508-1.094-.761-1.639.446-.508.886-1.023,1.332-1.531-.3-.628-.608-1.256-.906-1.883l-2.412.136c-.006-.185-.02-.557-.026-.741m3.062.375q.426.746.861,1.486c.432-.511.864-1.023,1.29-1.54C608.584,74.861,607.868,74.883,607.152,74.9Z" transform="translate(-434.258 -53.761)" fill="#6c3f21"/>
        <path id="Trazado_31206" data-name="Trazado 31206" d="M269.668,88.244a38.438,38.438,0,0,1,4.17-1.2l.29,1.568a20.831,20.831,0,0,0-4.235,1.241c-.483.247-1.054.6-1.074,1.207-.111.8.23,1.852,1.159,1.94,1.824.139,3.525-.722,5.252-1.179.111.3.222.591.332.889a28.312,28.312,0,0,1-5.079,1.2,2.089,2.089,0,0,1-1.934-.966,4.067,4.067,0,0,1-.534-3.2A2.44,2.44,0,0,1,269.668,88.244Z" transform="translate(-193.556 -63.157)" fill="#6c3f21"/>
        <path id="Trazado_31207" data-name="Trazado 31207" d="M360.173,87.15c2.111.685,4.215,1.386,6.283,2.19-.111.466-.216.932-.318,1.4-2.164-.628-4.286-1.392-6.388-2.2C359.892,88.079,360.034,87.613,360.173,87.15Z" transform="translate(-259.323 -63.236)" fill="#6c3f21"/>
        <path id="Trazado_31208" data-name="Trazado 31208" d="M618.111,90.205c.963-.818,1.844-1.73,2.832-2.525.133.568.27,1.136.4,1.707q-1.172,1.061-2.287,2.179c1.034.173,2.068.344,3.1.5.034.233.1.7.128.932a31.659,31.659,0,0,0-3.153-.724,9.965,9.965,0,0,0-3.761.577c-.082-.483-.162-.963-.239-1.446A7.584,7.584,0,0,0,618.111,90.205Z" transform="translate(-442.169 -63.615)" fill="#6c3f21"/>
        <path id="Trazado_31209" data-name="Trazado 31209" d="M13.467,94.99c2.13.619,4.232,1.341,6.394,1.849-.088.517-.182,1.031-.273,1.548-2.164-.525-4.269-1.275-6.428-1.818C13.259,96.044,13.362,95.516,13.467,94.99Z" transform="translate(-11.183 -68.849)" fill="#6c3f21"/>
        <path id="Trazado_31210" data-name="Trazado 31210" d="M354.436,99.72a57.922,57.922,0,0,1,6.746,1.372c-1.409,1.861-3.73,2.568-5.519,3.971,1.508.437,3.059.676,4.585,1.042-.406.224-.8.608-1.3.526-1.9-.213-3.758-.727-5.647-1.025.006-.3.011-.6.017-.9,1.724-1.185,3.522-2.255,5.295-3.363-1.491-.253-2.977-.517-4.468-.756C354.24,100.3,354.337,100.01,354.436,99.72Z" transform="translate(-254.705 -72.235)" fill="#6c3f21"/>
        <path id="Trazado_31211" data-name="Trazado 31211" d="M66.188,111.337c3.022-2.616,5.994-5.295,9.044-7.877q1.261,1.3,2.443,2.676c-4.931,4.528-9.99,8.922-14.978,13.387q-1.27-1.41-2.457-2.889C62.14,114.78,64.208,113.106,66.188,111.337Z" transform="translate(-44.89 -74.913)" fill="#6c3f21"/>
        <path id="Trazado_31212" data-name="Trazado 31212" d="M8.23,109.92c2.17.409,4.349.77,6.528,1.136A3.989,3.989,0,0,1,13.5,112.59c-1.366.886-2.764,1.724-4.073,2.693q2.16.375,4.335.659c0,.227.011.685.014.912-2.19-.364-4.366-.807-6.564-1.111l.051-.875c1.69-1.142,3.434-2.21,5.065-3.437-1.432-.261-2.872-.472-4.315-.653C8.085,110.491,8.156,110.2,8.23,109.92Z" transform="translate(-6.923 -79.538)" fill="#6c3f21"/>
        <path id="Trazado_31213" data-name="Trazado 31213" d="M617.92,110.89c1.767.554,3.548,1.054,5.32,1.585a6.147,6.147,0,0,1,1.912,1.148c-2.2,1.324-4.536,2.383-6.837,3.511q.013-.891.026-1.781c.582-.253,1.162-.508,1.744-.764q-.043-1.1-.085-2.193c-.682-.222-1.361-.44-2.037-.662-.011-.21-.031-.631-.043-.844m2.727,1.613c.071.531.145,1.06.219,1.591q.972-.388,1.949-.781C622.09,113.046,621.366,112.776,620.647,112.5Z" transform="translate(-444.159 -80.232)" fill="#6c3f21"/>
        <path id="Trazado_31214" data-name="Trazado 31214" d="M165.76,117.011c1.741-1.508,3.431-3.076,5.238-4.511q1.248,1.321,2.434,2.693c-2.909,2.727-5.945,5.315-8.908,7.982-2.057,1.784-4.014,3.681-6.141,5.38-.827-.98-1.642-1.971-2.4-3.005C159.252,122.717,162.5,119.854,165.76,117.011Z" transform="translate(-113.435 -81.385)" fill="#6c3f21"/>
        <path id="Trazado_31215" data-name="Trazado 31215" d="M82.219,122.925c1.934-1.665,3.8-3.406,5.775-5.025q1.27,1.338,2.528,2.687c-1.988,1.844-4.062,3.593-6.079,5.4-3.005,2.642-5.954,5.346-8.979,7.962-.875-.946-1.71-1.932-2.514-2.937C76.023,128.3,79.131,125.623,82.219,122.925Z" transform="translate(-53.989 -85.251)" fill="#6c3f21"/>
        <path id="Trazado_31216" data-name="Trazado 31216" d="M273.09,117.95c2.346.6,4.67,1.287,7.019,1.863-.014.293-.028.588-.043.883-2.156,1.1-4.249,2.312-6.36,3.488q0-.882,0-1.761a10.763,10.763,0,0,0,1.517-.96,8.9,8.9,0,0,0,.031-2.182q-1.048-.166-2.1-.335c-.026-.332-.045-.665-.068-1m2.764,1.511c.062.557.125,1.111.187,1.667.713-.338,1.429-.679,2.147-1.011C277.408,119.9,276.632,119.683,275.854,119.461Z" transform="translate(-197.279 -85.287)" fill="#6c3f21"/>
        <path id="Trazado_31217" data-name="Trazado 31217" d="M177.941,131.966c1.983-1.7,3.886-3.494,5.917-5.136q1.227,1.321,2.426,2.664c-2.809,2.7-5.809,5.193-8.686,7.817-2.13,1.849-4.153,3.823-6.368,5.576-.818-.96-1.625-1.926-2.409-2.909C171.837,137.28,174.907,134.644,177.941,131.966Z" transform="translate(-122.627 -91.644)" fill="#6c3f21"/>
        <path id="Trazado_31218" data-name="Trazado 31218" d="M353.607,129.5a39.318,39.318,0,0,1,4.369.017,2.373,2.373,0,0,1,1.79.835,3.955,3.955,0,0,1,.378,3.363,2.278,2.278,0,0,1-1.946,1.557,32.378,32.378,0,0,1-4.607.071c0-.517,0-1.034,0-1.548a43.329,43.329,0,0,0,4.337-.068,1.658,1.658,0,0,0,.392-3.278,22.719,22.719,0,0,0-4.712-.21C353.61,130.053,353.607,129.683,353.607,129.5Z" transform="translate(-254.913 -93.515)" fill="#6c3f21"/>
        <path id="Trazado_31219" data-name="Trazado 31219" d="M99.215,135.389a21.934,21.934,0,0,1,2.829-2.329,9.318,9.318,0,0,1,2.554,2.517c-4.962,4.462-9.979,8.868-14.944,13.331a10.358,10.358,0,0,1-2.363-2.98,26.894,26.894,0,0,1,2.838-2.582Q94.674,139.37,99.215,135.389Z" transform="translate(-64.256 -96.105)" fill="#6c3f21"/>
        <path id="Trazado_31220" data-name="Trazado 31220" d="M619.52,134.733q3.328-.068,6.658,0a16.982,16.982,0,0,1-.133,3.377,1.435,1.435,0,0,1-2.111.932,12.258,12.258,0,0,1-.8-1.176,6.534,6.534,0,0,1-1.068,1.42,1.845,1.845,0,0,1-2.292-.966,10.769,10.769,0,0,1-.25-3.585m.446,1.511a9.229,9.229,0,0,0,.571,1.136,1.351,1.351,0,0,0,1.514.267,9.373,9.373,0,0,0,.869-1.369c-.986-.051-1.971-.054-2.954-.034m3.159.026a10.51,10.51,0,0,0,.886,1.292,10.5,10.5,0,0,0,1.4.054c.06-.469.119-.94.185-1.409C624.772,136.219,623.948,136.236,623.125,136.27Z" transform="translate(-445.285 -97.278)" fill="#6c3f21"/>
        <path id="Trazado_31221" data-name="Trazado 31221" d="M6.311,140.77c1.452.037,2.909-.026,4.352.142a2.458,2.458,0,0,1,2.093,1.255,4.391,4.391,0,0,1-.017,3.284,1.955,1.955,0,0,1-1.585,1.187,39.287,39.287,0,0,1-4.943.077c0-.52-.006-1.04-.011-1.559a22.028,22.028,0,0,0,4.971-.105,1.694,1.694,0,0,0,.946-2.517,2.087,2.087,0,0,0-1.463-.724,24.741,24.741,0,0,0-4.352-.057C6.305,141.506,6.308,141.014,6.311,140.77Z" transform="translate(-6.2 -101.625)" fill="#6c3f21"/>
        <path id="Trazado_31222" data-name="Trazado 31222" d="M277.016,141.38a4.421,4.421,0,0,1,2.872.011,3.228,3.228,0,0,1,1.986,2.307,8.126,8.126,0,0,1-.222,3.414c-.293-.094-.585-.185-.878-.276.236-.906.8-1.951.227-2.843a3.168,3.168,0,0,0-3.346-1.119,2.144,2.144,0,0,0-1.829,1.667,8.391,8.391,0,0,0,.281,2.386c-.2-.04-.605-.116-.8-.153a9.735,9.735,0,0,1-.173-3.034A3.04,3.04,0,0,1,277.016,141.38Z" transform="translate(-198.691 -101.894)" fill="#6c3f21"/>
        <path id="Trazado_31223" data-name="Trazado 31223" d="M188.307,149.436c3.082-2.679,6.133-5.4,9.235-8.056.872.872,1.71,1.778,2.517,2.707q-7.5,6.711-15.035,13.373-1.236-1.444-2.443-2.912C184.4,152.751,186.4,151.143,188.307,149.436Z" transform="translate(-132.479 -102.061)" fill="#6c3f21"/>
        <path id="Trazado_31224" data-name="Trazado 31224" d="M13.452,168.193a1.872,1.872,0,0,1,1.915.273,1.786,1.786,0,0,1-.139,2.713,1.813,1.813,0,0,1-2.312-.31A1.841,1.841,0,0,1,13.452,168.193Z" transform="translate(-10.747 -121.151)" fill="#6c3f21"/>
        <path id="Trazado_31225" data-name="Trazado 31225" d="M281.161,168.2a1.861,1.861,0,0,1,1.909.318,1.732,1.732,0,1,1-2.451,2.446A1.789,1.789,0,0,1,281.161,168.2Z" transform="translate(-202.356 -121.166)" fill="#6c3f21"/>
        <path id="Trazado_31226" data-name="Trazado 31226" d="M314.206,168.03c.758.168,1.52.332,2.278.511-.04.9-.051,1.8-.057,2.7l-1.167-1.423c.3-.318.588-.633.881-.954l-1.315-.281a27.753,27.753,0,0,1-.352,2.781A9.383,9.383,0,0,1,314.206,168.03Z" transform="translate(-226.678 -121.141)" fill="#6c3f21"/>
        <path id="Trazado_31227" data-name="Trazado 31227" d="M660.539,167.98c.693.17,1.389.349,2.082.531a8.618,8.618,0,0,0,.2,2.7c-.537-.472-1.088-.929-1.642-1.378-.114.395-.224.793-.33,1.19l-.506.026c.071-1.023.131-2.045.2-3.068m.338.631c0,.2,0,.614,0,.818.361.02.721.043,1.088.065q.128-.418.264-.835C661.777,168.642,661.326,168.625,660.877,168.611Z" transform="translate(-474.53 -121.106)" fill="#6c3f21"/>
        <path id="Trazado_31228" data-name="Trazado 31228" d="M359.077,168.913a1.686,1.686,0,0,1,1.852,2.789,1.7,1.7,0,1,1-1.852-2.789Z" transform="translate(-258.131 -121.661)" fill="#6c3f21"/>
        <path id="Trazado_31229" data-name="Trazado 31229" d="M629.12,168.819a1.7,1.7,0,0,1,1.971.375,1.7,1.7,0,1,1-2.676,2.068A1.714,1.714,0,0,1,629.12,168.819Z" transform="translate(-451.493 -121.589)" fill="#6c3f21"/>
        <path id="Trazado_31230" data-name="Trazado 31230" d="M13.55,189.813A40.461,40.461,0,0,1,19,186.16a3.653,3.653,0,0,1-1.131,1.577c-1.06.756-2.17,1.446-3.176,2.278,1.832.256,3.769-.011,5.491.8a56.606,56.606,0,0,1-6.465-.355Z" transform="translate(-11.462 -134.122)" fill="#6c3f21"/>
        <path id="Trazado_31231" data-name="Trazado 31231" d="M358.63,191.861c1.608-1.8,3.823-2.869,5.772-4.241l.341.679a38.205,38.205,0,0,0-4.107,2.735A4.484,4.484,0,0,1,358.63,191.861Z" transform="translate(-258.521 -135.167)" fill="#6c3f21"/>
        <path id="Trazado_31232" data-name="Trazado 31232" d="M268.83,189.09c2.071.338,4.122.8,6.184,1.176-.009.2-.026.591-.034.787-1.327-.261-2.656-.514-4-.665a30.792,30.792,0,0,0,3.224,3.1,42.6,42.6,0,0,0-4.357.719,30.043,30.043,0,0,0,3.409,1.534c.028.17.082.508.108.676-1.949-.858-3.92-1.679-5.783-2.716,1.741-.324,3.5-.548,5.252-.775C271.491,191.655,270.114,190.422,268.83,189.09Z" transform="translate(-193.334 -136.219)" fill="#6c3f21"/>
        <path id="Trazado_31233" data-name="Trazado 31233" d="M614.1,190.25c2.207.321,4.377.858,6.579,1.236-.08.264-.156.528-.23.8-1.375-.3-2.75-.6-4.147-.775a37.784,37.784,0,0,0,3.573,3.164c-1.724.125-3.448.258-5.167.452a15.432,15.432,0,0,1,4.514,2.284,34.5,34.5,0,0,1-6.573-2.727c1.858-.253,3.727-.415,5.587-.659C616.885,192.733,615.394,191.6,614.1,190.25Z" transform="translate(-440.386 -137.05)" fill="#6c3f21"/>
        <path id="Trazado_31234" data-name="Trazado 31234" d="M1130.35,194.4q1.112.009,2.23-.014.055,5.045-.008,10.092a9.643,9.643,0,0,1,2.934-2.1,4.254,4.254,0,0,1,4.869,1.67,9.753,9.753,0,0,1,.031,10.308,4.856,4.856,0,0,1-4.738,2.366,7.12,7.12,0,0,1-3.15-1.721c-.673.486-1.344.974-2.028,1.44-.2-2.366-.1-4.741-.108-7.11-.02-4.977.028-9.953-.031-14.93m4.88,9.382a3.471,3.471,0,0,0-1.613,1.545,9.088,9.088,0,0,0-1.085,4.57,8.572,8.572,0,0,0,.883,4.19,2.64,2.64,0,0,0,1.755,1.437,2.85,2.85,0,0,0,2.778-1.054,7.675,7.675,0,0,0,1.471-5.147,8.626,8.626,0,0,0-1.258-4.764A2.564,2.564,0,0,0,1135.23,203.786Z" transform="translate(-811.032 -140.014)" fill="#6c3f21"/>
        <path id="Trazado_31235" data-name="Trazado 31235" d="M938.748,199.27l.747.014c.406,3.846.75,7.7,1.077,11.55.25,2.971.65,5.928.821,8.905-.832-.009-1.659-.011-2.485-.014-.568-5.033-.793-10.1-1.165-15.149-1.826,4.2-3.619,8.414-5.414,12.626-.341.787-.713,1.559-1.1,2.326a23.479,23.479,0,0,1-1.6-3.267c-1.017-2.554-2.142-5.062-3.176-7.607-.491-1.2-1.008-2.395-1.582-3.559-.508,4.863-.682,9.754-1.182,14.617l-1.733,0c.5-5.34,1.219-10.658,1.772-15.992.151-1.429.329-2.858.52-4.284.21-.017.631-.054.841-.074,2.2,5.1,4.383,10.212,6.655,15.282C934.231,209.592,936.265,204.326,938.748,199.27Z" transform="translate(-661.836 -143.508)" fill="#6c3f21"/>
        <path id="Trazado_31236" data-name="Trazado 31236" d="M18.59,208.457q2.765-1.052,5.479-2.227l.324.761c-1.9.724-3.789,1.491-5.664,2.281C18.7,209.068,18.624,208.661,18.59,208.457Z" transform="translate(-15.071 -148.491)" fill="#6c3f21"/>
        <path id="Trazado_31237" data-name="Trazado 31237" d="M259.476,212.29c1.182.7,2.426,1.3,3.551,2.082a2.243,2.243,0,0,1,1.131,2.071c-.119,1.062-.9,2.3-2.091,2.267a9.62,9.62,0,0,1-3.2-1.3,5.812,5.812,0,0,1-1.551-1.477c1.616.4,2.934,1.517,4.528,1.968a1.578,1.578,0,0,0,1.554-2.471c-1.119-1.165-2.693-1.724-4.079-2.494C259.374,212.716,259.425,212.5,259.476,212.29Z" transform="translate(-185.989 -152.829)" fill="#6c3f21"/>
        <path id="Trazado_31238" data-name="Trazado 31238" d="M604.844,213.64a10.307,10.307,0,0,1,4.181,1.937,3.287,3.287,0,0,1,1.238,1.389,2.292,2.292,0,0,1-1.5,2.946,3.364,3.364,0,0,1-2.011-.386c-1.2-.562-2.318-1.278-3.48-1.912,0-.207-.014-.619-.02-.827,1.2.577,2.341,1.253,3.519,1.869a3.4,3.4,0,0,0,2.025.506,1.494,1.494,0,0,0,.969-2.045,5.593,5.593,0,0,0-2.221-1.781A19.128,19.128,0,0,1,604.844,213.64Z" transform="translate(-433.656 -153.796)" fill="#6c3f21"/>
        <path id="Trazado_31239" data-name="Trazado 31239" d="M368.36,218.467a22.208,22.208,0,0,1,5.883-3.727c-.611,2.054-1.537,3.988-2.315,5.976a25.015,25.015,0,0,1,4.482-2.423,23.831,23.831,0,0,1-5.869,3.7c.682-1.986,1.639-3.86,2.315-5.846A40.233,40.233,0,0,1,368.36,218.467Z" transform="translate(-265.487 -154.583)" fill="#6c3f21"/>
        <path id="Trazado_31240" data-name="Trazado 31240" d="M1000.437,223.031a5.939,5.939,0,0,1,5.434-1.014,3.083,3.083,0,0,1,1.92,1.733,10.061,10.061,0,0,1,.474,3.735,59.59,59.59,0,0,0,.136,7.053c.44.324.9.625,1.352.94a3.051,3.051,0,0,1-1.937.5,5.183,5.183,0,0,1-1.886-1.236c-1.307.986-2.914,1.966-4.616,1.46-2.849-.835-3.2-5.312-.747-6.812,1.528-.991,3.443-.966,5.065-1.733.386-.168.44-.67.5-1.034a3.928,3.928,0,0,0-1.25-3.051,2.187,2.187,0,0,0-2.545-.344,19.833,19.833,0,0,0-2.4,1.815c.125-.665-.128-1.557.494-2.014m1.75,7.13a2.753,2.753,0,0,0-.724,3.616,2.311,2.311,0,0,0,2.7.915,2.939,2.939,0,0,0,1.934-2.366,24.437,24.437,0,0,0,0-3.321A9.021,9.021,0,0,0,1002.187,230.161Z" transform="translate(-716.944 -159.599)" fill="#6c3f21"/>
        <path id="Trazado_31241" data-name="Trazado 31241" d="M1039.91,222.177c.841.006,1.684.009,2.531,0a105.186,105.186,0,0,0,3.622,10.547,89.37,89.37,0,0,0,3.582-10.561l1.724.023c-.895,2.747-2,5.42-2.965,8.141-1.682,4.468-3.3,8.965-5.033,13.416-.579-.006-1.156-.006-1.73-.006.633-1.645,1.27-3.292,1.988-4.9a17.969,17.969,0,0,0,.935-2.409,3.761,3.761,0,0,0-.3-2.145C1042.779,230.258,1041.31,226.23,1039.91,222.177Z" transform="translate(-746.282 -159.896)" fill="#6c3f21"/>
        <path id="Trazado_31242" data-name="Trazado 31242" d="M1086.669,223.274a8.566,8.566,0,0,1,3.627-1.517,4.829,4.829,0,0,1,3.261.764,3.563,3.563,0,0,1,1.224,2.162,20.611,20.611,0,0,1,.219,4.227c-.037,1.92-.014,3.843.054,5.766.494.139.988.284,1.488.435-.457.33-.838.881-1.446.895a3.907,3.907,0,0,1-2.5-1.253,6.572,6.572,0,0,1-3.451,1.562,3.209,3.209,0,0,1-3.156-1.929,4.182,4.182,0,0,1,1-4.8c1.505-1.2,3.553-1.116,5.255-1.875.432-.185.548-.716.6-1.136a3.944,3.944,0,0,0-1.355-3.093,2.215,2.215,0,0,0-2.579-.2,12.141,12.141,0,0,0-2.216,1.949c-.011-.653-.02-1.3-.026-1.957m2.116,6.968a2.779,2.779,0,0,0-.8,3.255,2.265,2.265,0,0,0,2.71,1.23,2.772,2.772,0,0,0,2.031-2.164,25.653,25.653,0,0,0,.008-3.65A10.6,10.6,0,0,0,1088.785,230.242Z" transform="translate(-779.026 -159.592)" fill="#6c3f21"/>
        <path id="Trazado_31243" data-name="Trazado 31243" d="M39.159,238.489a3.532,3.532,0,0,1,4-2.3c1.153.312,1.733,1.463,2.372,2.369-.1.173-.3.52-.4.7A6.821,6.821,0,0,0,43.718,237a2.383,2.383,0,0,0-2.735.463c-.9.682-1.679,1.895-1.156,3.037a7.2,7.2,0,0,0,1.966,1.721,7.108,7.108,0,0,1-1.562-.52A2.919,2.919,0,0,1,39.159,238.489Z" transform="translate(-29.691 -169.871)" fill="#6c3f21"/>
        <path id="Trazado_31244" data-name="Trazado 31244" d="M248.49,236.93c1.863.668,3.2,2.193,4.829,3.25.543-.543,1.091-1.077,1.673-1.574a17.36,17.36,0,0,1-1.724,2.642c-1.051-.895-2.15-1.724-3.255-2.545A6.164,6.164,0,0,1,248.49,236.93Z" transform="translate(-179.667 -170.47)" fill="#6c3f21"/>
        <path id="Trazado_31245" data-name="Trazado 31245" d="M593.68,236.69c2.014.724,3.394,2.44,5.13,3.61.548-.557,1.111-1.1,1.7-1.611a8.091,8.091,0,0,1-1.656,2.681C597.1,239.849,594.947,238.7,593.68,236.69Z" transform="translate(-426.805 -170.298)" fill="#6c3f21"/>
        <path id="Trazado_31246" data-name="Trazado 31246" d="M239.17,246.89c2.068.923,4.07,1.98,6.062,3.062l-.7.426a6.713,6.713,0,0,0-2.213-.812,9.624,9.624,0,0,0-1.338.98c.31.761.619,1.522.935,2.281-.136.207-.273.415-.406.622-.8-2.182-1.633-4.349-2.338-6.559m1.068,1.366c.173.619.352,1.241.531,1.861q.622-.533,1.247-1.057C241.423,248.79,240.832,248.52,240.238,248.256Z" transform="translate(-172.994 -177.601)" fill="#6c3f21"/>
        <path id="Trazado_31247" data-name="Trazado 31247" d="M564.008,255.6a59.792,59.792,0,0,1,3.843,5.491c-.176.077-.528.233-.7.312q-1.287-1.99-2.6-3.965c.125,1.656.287,3.312.366,4.974-1.375-.957-2.673-2.017-3.977-3.068a16.284,16.284,0,0,1,1.826,4.778,24.311,24.311,0,0,1-2.787-6.309c1.477,1,2.849,2.147,4.338,3.133C564.269,259.159,564.076,257.384,564.008,255.6Z" transform="translate(-402.677 -183.837)" fill="#6c3f21"/>
        <path id="Trazado_31248" data-name="Trazado 31248" d="M422.913,260.23l.818.011c-.687,1.375-1.4,2.738-2.145,4.082a7.48,7.48,0,0,1-1.616,1.917C420.473,264.031,421.9,262.216,422.913,260.23Z" transform="translate(-302.437 -187.152)" fill="#6c3f21"/>
        <path id="Trazado_31249" data-name="Trazado 31249" d="M76.129,260.98l.827.1c-.7,1.369-1.349,2.772-2.1,4.116a3.736,3.736,0,0,1-1.531,1.352C74.081,264.607,75.263,262.872,76.129,260.98Z" transform="translate(-54.254 -187.689)" fill="#6c3f21"/>
        <path id="Trazado_31250" data-name="Trazado 31250" d="M86.212,263.85c.8,1.906,1.409,3.883,2.21,5.786.571-1.378,1.06-2.787,1.5-4.213.19.057.383.111.574.168-.781,1.914-1.454,3.869-2.25,5.775-.815-1.835-1.386-3.767-2.2-5.6a16.86,16.86,0,0,1-1.949,4.258A38.64,38.64,0,0,1,86.212,263.85Z" transform="translate(-61.965 -189.743)" fill="#6c3f21"/>
        <path id="Trazado_31251" data-name="Trazado 31251" d="M432.356,264.29h.543c.508,1.9.98,3.806,1.551,5.69a30.241,30.241,0,0,1,2.165-4.553,38.181,38.181,0,0,1-2.25,6.493,5.065,5.065,0,0,1-.886-2.261c-.31-1.361-.687-2.7-1.082-4.042a17.664,17.664,0,0,1-2.116,4.8A44.692,44.692,0,0,1,432.356,264.29Z" transform="translate(-309.819 -190.058)" fill="#6c3f21"/>
        <path id="Trazado_31252" data-name="Trazado 31252" d="M530.573,270.153a2.9,2.9,0,0,1,3.321,1.2,4.625,4.625,0,0,1,.366,3.914,2.849,2.849,0,0,1-4.454,1.011,4.536,4.536,0,0,1-1.128-3.974,2.682,2.682,0,0,1,1.895-2.15m-.011.469a2.037,2.037,0,0,0-1.094,1.682,4.8,4.8,0,0,0,.707,3.34,1.961,1.961,0,0,0,2.343.77,2.392,2.392,0,0,0,1.159-2.139,4.228,4.228,0,0,0-1.074-3.323A1.85,1.85,0,0,0,530.562,270.622Z" transform="translate(-380.212 -194.161)" fill="#6c3f21"/>
        <path id="Trazado_31253" data-name="Trazado 31253" d="M184.536,271.737a3.018,3.018,0,0,1,3.551,1.094,3.691,3.691,0,0,1,.133,3.818,3.4,3.4,0,0,1-3.846,1.025,3.441,3.441,0,0,1-1.761-3.434,2.7,2.7,0,0,1,1.923-2.5m.332.355a2.189,2.189,0,0,0-1.437,2.15,3.412,3.412,0,0,0,1.261,2.9,2.083,2.083,0,0,0,3.031-1.082,3.761,3.761,0,0,0-.815-3.44A1.91,1.91,0,0,0,184.868,272.092Z" transform="translate(-132.498 -195.261)" fill="#6c3f21"/>
        <path id="Trazado_31254" data-name="Trazado 31254" d="M465.12,271.8a11.591,11.591,0,0,1,2.5.318c.3.116.7.327.71.7a5.813,5.813,0,0,1-.56,2.164,8.435,8.435,0,0,1,.432,1.957,1.555,1.555,0,0,1-1.241,1.466,12.929,12.929,0,0,1-2.343.08c.125-2.233.344-4.457.5-6.687m.77.366c-.074.861-.136,1.724-.2,2.585l1.457.026a9.343,9.343,0,0,0,.418-1.949c-.548-.25-1.116-.452-1.679-.662m-.258,2.9c-.077,1.014-.136,2.028-.19,3.042.545-.017,1.094-.034,1.642-.045a5.05,5.05,0,0,0,.176-2.358A16.96,16.96,0,0,0,465.631,275.064Z" transform="translate(-334.404 -195.435)" fill="#6c3f21"/>
        <path id="Trazado_31255" data-name="Trazado 31255" d="M484.235,272.277a2.869,2.869,0,0,1,3.275,1.238,4.453,4.453,0,0,1-.293,4.582,2.816,2.816,0,0,1-4.221.2,4.254,4.254,0,0,1-.784-3.553,2.939,2.939,0,0,1,2.022-2.471m.011.508a2.684,2.684,0,0,0-1.207,1.966,4.622,4.622,0,0,0,.329,2.912,1.845,1.845,0,0,0,2.054,1,2.622,2.622,0,0,0,1.642-2.1,4.673,4.673,0,0,0-.276-2.886A1.907,1.907,0,0,0,484.246,272.786Z" transform="translate(-346.944 -195.697)" fill="#6c3f21"/>
        <path id="Trazado_31256" data-name="Trazado 31256" d="M117.053,273.27a10.807,10.807,0,0,1,2.608.639,1.157,1.157,0,0,1,.574,1.429c-.27.395-.6.744-.909,1.113a10.145,10.145,0,0,1,.659,1.329,1.538,1.538,0,0,1-1.363,1.724,13.788,13.788,0,0,1-2.491-.114c.355-2.031.685-4.07.923-6.121m.764.628c-.119.784-.233,1.571-.327,2.36.508-.142,1.028-.233,1.542-.361.247-.48.4-1,.616-1.5-.608-.176-1.221-.341-1.832-.5m-.494,2.531c-.091.963-.156,1.932-.185,2.9a14.761,14.761,0,0,0,1.562-.432,1.59,1.59,0,0,0,.341-1.781A8.32,8.32,0,0,0,117.323,276.429Z" transform="translate(-84.904 -196.488)" fill="#6c3f21"/>
        <path id="Trazado_31257" data-name="Trazado 31257" d="M506.389,272.376a57.669,57.669,0,0,1,3.988,5.019,23.782,23.782,0,0,1,.25-5.045,34.521,34.521,0,0,1,.108,6.831c-1.417-1.656-2.625-3.471-3.9-5.232a27.623,27.623,0,0,1-.207,5.352C506.034,277.034,506.372,274.685,506.389,272.376Z" transform="translate(-364.229 -195.829)" fill="#6c3f21"/>
        <path id="Trazado_31258" data-name="Trazado 31258" d="M164.6,275.18h.6c.074,2.071.264,4.133.375,6.2-1.432-1.395-2.784-2.88-4.343-4.141.023,1.446.165,2.883.33,4.318l-.653.045c0-2.025-.168-4.048-.227-6.07,1.525,1.227,2.835,2.693,4.289,4C164.918,278.077,164.779,276.626,164.6,275.18Z" transform="translate(-116.8 -197.855)" fill="#6c3f21"/>
      </g>
      <g id="_fd8204ff" data-name="#fd8204ff" transform="translate(34.151 18.961)">
        <path id="Trazado_31259" data-name="Trazado 31259" d="M143.52,61.753q1.329-1.257,2.7-2.463c4.525,4.948,8.911,10.024,13.385,15.021-.957.866-1.943,1.7-2.937,2.522C152.263,71.828,147.9,66.783,143.52,61.753Z" transform="translate(-132.465 -59.29)" fill="#fd8204"/>
        <path id="Trazado_31260" data-name="Trazado 31260" d="M129.21,75.425c.864-.869,1.761-1.7,2.681-2.505,4.44,5.014,8.956,9.962,13.328,15.035-.952.846-1.923,1.67-2.929,2.451Q135.72,82.941,129.21,75.425Z" transform="translate(-122.219 -69.048)" fill="#fd8204"/>
        <path id="Trazado_31261" data-name="Trazado 31261" d="M521.31,83.509a18.3,18.3,0,0,1,6.244.3,3.816,3.816,0,0,1,1.156.432,9.037,9.037,0,0,1,.65,1.082,35.186,35.186,0,0,1-3.886-.608,25.754,25.754,0,0,0-4.184-.261C521.3,84.213,521.3,83.745,521.31,83.509Z" transform="translate(-402.928 -76.53)" fill="#fd8204"/>
        <path id="Trazado_31262" data-name="Trazado 31262" d="M114.66,88.259q1.342-1.214,2.69-2.429c2.324,2.511,4.556,5.1,6.84,7.652,2.182,2.477,4.414,4.906,6.545,7.425q-1.449,1.257-2.943,2.46c-2.551-2.8-4.988-5.7-7.493-8.544C118.421,92.633,116.45,90.523,114.66,88.259Z" transform="translate(-111.802 -78.291)" fill="#fd8204"/>
        <path id="Trazado_31263" data-name="Trazado 31263" d="M503.975,91.476a38.124,38.124,0,0,1,13.839.73l.034,1.085a47.444,47.444,0,0,0-14.038-.878C503.85,92.18,503.932,91.708,503.975,91.476Z" transform="translate(-390.413 -82.119)" fill="#fd8204"/>
        <path id="Trazado_31264" data-name="Trazado 31264" d="M483.78,103.015a42.3,42.3,0,0,1,18.231-.182,18.094,18.094,0,0,1,2.684.642c.565.131.7.756.983,1.179a26.669,26.669,0,0,1-3.474-.631,43.374,43.374,0,0,0-18.463.034C483.751,103.8,483.771,103.277,483.78,103.015Z" transform="translate(-376.044 -89.818)" fill="#fd8204"/>
        <path id="Trazado_31265" data-name="Trazado 31265" d="M477.98,116.961a52.326,52.326,0,0,1,20.9-.491A8.99,8.99,0,0,1,501.1,117a4.585,4.585,0,0,1,.827,1.074c-1.866-.085-3.673-.579-5.516-.818a50.972,50.972,0,0,0-18.486.8C477.94,117.691,477.96,117.325,477.98,116.961Z" transform="translate(-371.877 -99.645)" fill="#fd8204"/>
        <path id="Trazado_31266" data-name="Trazado 31266" d="M478.152,122.452a52.582,52.582,0,0,1,21.676-.293,4.867,4.867,0,0,1,1.528.48,11.258,11.258,0,0,1,.614,1,26.372,26.372,0,0,1-2.752-.418,49.942,49.942,0,0,0-17.194-.383c-1.366.207-2.724.483-4.093.69C478,123.171,478.075,122.81,478.152,122.452Z" transform="translate(-371.885 -103.596)" fill="#fd8204"/>
        <path id="Trazado_31267" data-name="Trazado 31267" d="M412.715,128.664a28.739,28.739,0,0,1,9.291-1.332c4.891-.088,9.99-.278,14.6,1.628a12.231,12.231,0,0,0-.42,4.866c4.8.21,9.587.7,14.387.94,0,.668,0,1.335.014,2.005-5.661.04-11.325,0-16.986.02q-.009-1.423-.02-2.846c.375-.054.756-.105,1.136-.156-.02-1.52-.071-3.037-.082-4.553-6.8-.713-13.748-1.062-20.5.284,0,2.275,0,4.551-.1,6.823a7.407,7.407,0,0,1-2.8.537q-5.377-.038-10.751-.014c-.054-.415-.105-.827-.156-1.241a7.172,7.172,0,0,0-3.326.92c-3.406,1.861-6.78,3.786-10.243,5.542-.088-2.554-.071-5.11-.008-7.667,4.7.028,9.4.037,14.1,0,.048.429.094.861.145,1.29,3.9.034,7.8.017,11.694.011C412.718,133.365,412.707,131.016,412.715,128.664Z" transform="translate(-306.573 -107.968)" fill="#fd8204"/>
        <path id="Trazado_31268" data-name="Trazado 31268" d="M490.015,138.4q2.22.038,4.443.009c.009.511.023,1.025.037,1.537-.988.034-1.977.057-2.963.085q.021,1.747,0,3.494c-.517-.023-1.034-.045-1.545-.065C489.989,141.772,489.983,140.084,490.015,138.4Z" transform="translate(-380.518 -115.929)" fill="#fd8204"/>
        <path id="Trazado_31269" data-name="Trazado 31269" d="M498.015,151.05c4.658-.213,9.32-.406,13.981-.48,0,.966-.006,1.929-.017,2.894q-6.979-.009-13.964,0Q498.01,152.256,498.015,151.05Z" transform="translate(-386.263 -124.642)" fill="#fd8204"/>
        <path id="Trazado_31270" data-name="Trazado 31270" d="M133.47,157.708q1.3-1.265,2.662-2.468c4.5,4.974,8.931,10,13.356,15.041-.943.875-1.917,1.713-2.934,2.5C142.2,167.747,137.779,162.776,133.47,157.708Z" transform="translate(-125.269 -127.985)" fill="#fd8204"/>
        <path id="Trazado_31271" data-name="Trazado 31271" d="M436.04,168.332c5.607-3.477,11.146-7.062,16.788-10.482.048,2.9.074,5.8-.02,8.7C447.212,167.082,441.627,167.732,436.04,168.332Z" transform="translate(-341.894 -129.854)" fill="#fd8204"/>
        <path id="Trazado_31272" data-name="Trazado 31272" d="M425.8,162.743c4.7-.009,9.4-.06,14.1.17a4.961,4.961,0,0,1-2.659.895c-3.818-.057-7.635-.145-11.453-.153C425.793,163.428,425.8,162.973,425.8,162.743Z" transform="translate(-334.555 -133.349)" fill="#fd8204"/>
        <path id="Trazado_31273" data-name="Trazado 31273" d="M498,164.745q6.983-.034,13.967,0c.031,2.855.017,5.712.011,8.567-4.65-.676-9.314-1.261-13.961-1.957C497.967,169.154,497.981,166.95,498,164.745Z" transform="translate(-386.24 -134.778)" fill="#fd8204"/>
        <path id="Trazado_31274" data-name="Trazado 31274" d="M551.739,164.739c5.661-.014,11.322-.057,16.984.023q-.038,2.552,0,5.1c-5.65,1.165-11.3,2.343-16.955,3.474C551.685,170.474,551.719,167.605,551.739,164.739Z" transform="translate(-424.711 -134.769)" fill="#fd8204"/>
        <path id="Trazado_31275" data-name="Trazado 31275" d="M416.96,167.126a52.386,52.386,0,0,1,8.232-.08c2,.08,4-.048,5.991.173a8.975,8.975,0,0,1-1.494.917,8.873,8.873,0,0,1-2.2.054c-2.835-.17-5.673-.273-8.51-.386A3.726,3.726,0,0,1,416.96,167.126Z" transform="translate(-328.233 -136.346)" fill="#fd8204"/>
        <path id="Trazado_31276" data-name="Trazado 31276" d="M118.92,171.353c.909-.815,1.818-1.633,2.752-2.423,4.417,5.028,8.922,9.976,13.316,15.024-.963.844-1.943,1.667-2.948,2.457-2.764-3.073-5.448-6.215-8.181-9.317C122.215,175.179,120.485,173.336,118.92,171.353Z" transform="translate(-114.852 -137.786)" fill="#fd8204"/>
        <path id="Trazado_31277" data-name="Trazado 31277" d="M409.94,170.938c2.466-.068,4.928.011,7.388.176,2.17.153,4.349.173,6.508.446a8.506,8.506,0,0,1-1.957,1.185,7.632,7.632,0,0,1-1.971,0c-3.3-.318-6.621-.489-9.922-.846C409.974,171.657,409.951,171.18,409.94,170.938Z" transform="translate(-323.207 -139.207)" fill="#fd8204"/>
        <path id="Trazado_31278" data-name="Trazado 31278" d="M401.68,174.89c2.639.148,5.266.443,7.9.659a36.662,36.662,0,0,1,5.593.668,11.607,11.607,0,0,1-1.545.784,5.949,5.949,0,0,1-1.878-.014c-3.349-.406-6.7-.781-10.055-1.173C401.691,175.583,401.683,175.12,401.68,174.89Z" transform="translate(-317.294 -142.053)" fill="#fd8204"/>
        <path id="Trazado_31279" data-name="Trazado 31279" d="M394.1,178.953a37.065,37.065,0,0,1,6.187.517,60.022,60.022,0,0,1,7.084,1.028,9,9,0,0,1-1.969,1.148,9.471,9.471,0,0,1-2.52-.329c-2.463-.537-4.962-.878-7.428-1.381C394.833,179.887,394.5,179.342,394.1,178.953Z" transform="translate(-311.867 -144.946)" fill="#fd8204"/>
        <path id="Trazado_31280" data-name="Trazado 31280" d="M104.6,184.3c.844-.883,1.733-1.727,2.647-2.539,2.633,2.889,5.192,5.846,7.8,8.755,1.832,2.113,3.761,4.142,5.539,6.3q-1.415,1.227-2.852,2.437C113.295,194.326,108.983,189.279,104.6,184.3Z" transform="translate(-104.6 -146.972)" fill="#fd8204"/>
        <path id="Trazado_31281" data-name="Trazado 31281" d="M387.13,182.985a13.961,13.961,0,0,1,4.644.31c2.659.591,5.366.954,8,1.662a8.074,8.074,0,0,1-1.628.969,5.371,5.371,0,0,1-1.633-.151c-3.108-.653-6.215-1.292-9.337-1.866C387.156,183.6,387.141,183.292,387.13,182.985Z" transform="translate(-306.877 -147.8)" fill="#fd8204"/>
      </g>
      <g id="_6c3f21fe" data-name="#6c3f21fe" transform="translate(10.609 49.755)">
        <path id="Trazado_31282" data-name="Trazado 31282" d="M302.6,167.7a9.808,9.808,0,0,1,1.361,2.233c.239-.665.486-1.327.73-1.988.142-.028.432-.08.577-.108a21.934,21.934,0,0,1-.222,3.258c-.119-.56-.207-1.125-.31-1.684-.3.489-.591.989-.92,1.463-.233-.241-.46-.486-.679-.736-.1.185-.187.366-.278.551-.133.051-.4.151-.531.2A24.958,24.958,0,0,1,302.6,167.7Z" transform="translate(-222.622 -167.7)" fill="#6c3f21"/>
        <path id="Trazado_31283" data-name="Trazado 31283" d="M21.72,217.819a29.328,29.328,0,0,1,5.59-3.079c-.565,1.861-1.327,3.656-1.883,5.522a29.4,29.4,0,0,1,4.161-1.986,24.214,24.214,0,0,1-5.531,3.233c.568-1.912,1.358-3.744,1.98-5.636A17.561,17.561,0,0,1,21.72,217.819Z" transform="translate(-21.72 -201.378)" fill="#6c3f21"/>
        <path id="Trazado_31284" data-name="Trazado 31284" d="M387.964,236.2a2.958,2.958,0,0,1,3.235.588,8.135,8.135,0,0,1,.96,1.878c-.17,0-.514,0-.685-.006a5.158,5.158,0,0,0-.929-1.818,2.812,2.812,0,0,0-3.011.611,3.386,3.386,0,0,0-1.523,2.994,10.162,10.162,0,0,0,1.719,1.963,7.2,7.2,0,0,1-1.772-.952,2.614,2.614,0,0,1-.511-2.7A4.568,4.568,0,0,1,387.964,236.2Z" transform="translate(-282.007 -216.573)" fill="#6c3f21"/>
        <path id="Trazado_31285" data-name="Trazado 31285" d="M398.04,251.837c1.4-1.755,2.789-3.528,4.266-5.227a14.922,14.922,0,0,1,2.133,2.1c-.673-.332-1.327-.707-1.971-1.091q-.652.805-1.3,1.613c.463.54.915,1.091,1.366,1.645-.656-.318-1.3-.662-1.94-1q-.741.925-1.469,1.858c.528.594,1.051,1.19,1.531,1.824A16.544,16.544,0,0,1,398.04,251.837Z" transform="translate(-291.145 -224.195)" fill="#6c3f21"/>
        <path id="Trazado_31286" data-name="Trazado 31286" d="M51.55,252.113c1.284-1.574,2.636-3.093,3.914-4.673a18.572,18.572,0,0,1,2.241,2.142c-.7-.341-1.383-.727-2.057-1.122q-.6.686-1.2,1.375c.489.545.98,1.094,1.46,1.648-.662-.332-1.321-.67-1.983-1q-.69.805-1.369,1.622c.511.579,1.014,1.167,1.483,1.787A24.791,24.791,0,0,1,51.55,252.113Z" transform="translate(-43.077 -224.79)" fill="#6c3f21"/>
        <path id="Trazado_31287" data-name="Trazado 31287" d="M218.109,256.47a17.99,17.99,0,0,1,3.48,5.388,11.74,11.74,0,0,1-2.914-3.369c-.057,1.488.026,2.977.094,4.465-1.27-.852-2.5-1.755-3.772-2.608.591,1.412,1.466,2.764,1.449,4.349a38.491,38.491,0,0,1-2.585-6.093c1.451.988,2.86,2.042,4.357,2.968C218.183,259.87,218.078,258.171,218.109,256.47Z" transform="translate(-159.282 -231.255)" fill="#6c3f21"/>
        <path id="Trazado_31288" data-name="Trazado 31288" d="M137.071,275.919a3.035,3.035,0,0,1,3.667,1.568,3.623,3.623,0,0,1-.875,4.1,3.282,3.282,0,0,1-4.457-.753c-.957-1.676-.418-4.411,1.665-4.911m.014.543c-1.386.736-1.488,2.659-1.031,3.991a2.1,2.1,0,0,0,3.5.545,3.9,3.9,0,0,0,.349-3.5A2.037,2.037,0,0,0,137.085,276.461Z" transform="translate(-102.786 -245.088)" fill="#6c3f21"/>
      </g>
      <g id="_6b3e21fc" data-name="#6b3e21fc" transform="translate(107.891 49.673)">
        <path id="Trazado_31289" data-name="Trazado 31289" d="M649.2,167.41a21.1,21.1,0,0,1,1.307,2.417,24.742,24.742,0,0,1,1.193-2.414,22.832,22.832,0,0,1,.074,3.443c-.179-.5-.352-1-.514-1.508-.318.506-.628,1.014-.963,1.508-.17-.435-.349-.866-.5-1.307-.1-.31-.2-.619-.3-.929-.074.75-.139,1.5-.207,2.253A9.28,9.28,0,0,1,649.2,167.41Z" transform="translate(-568.155 -167.41)" fill="#6b3e21"/>
        <path id="Trazado_31290" data-name="Trazado 31290" d="M364.2,209.574c2.122-.761,4.127-1.895,6.374-2.264a5.218,5.218,0,0,1-1.633,1.258c-1.551.656-3.139,1.219-4.718,1.8C364.217,210.173,364.206,209.776,364.2,209.574Z" transform="translate(-364.2 -195.976)" fill="#6b3e21"/>
      </g>
      <g id="_37201083" data-name="#37201083" transform="translate(189.022 50.883)">
        <path id="Trazado_31291" data-name="Trazado 31291" d="M650.027,171.67c.1.31.2.619.3.929a11.668,11.668,0,0,1-.509,1.324C649.888,173.17,649.953,172.42,650.027,171.67Z" transform="translate(-649.82 -171.67)" fill="#372010" opacity="0.51"/>
      </g>
      <g id="_683d20f6" data-name="#683d20f6" transform="translate(108.164 59.363)">
        <path id="Trazado_31292" data-name="Trazado 31292" d="M365.16,201.691a11.45,11.45,0,0,1,5.545.358A16.488,16.488,0,0,1,365.16,201.691Z" transform="translate(-365.16 -201.524)" fill="#683d20" opacity="0.96"/>
      </g>
      <g id="_6b3f21fd" data-name="#6b3f21fd" transform="translate(170.553 72.113)">
        <path id="Trazado_31293" data-name="Trazado 31293" d="M584.8,246.41a52.175,52.175,0,0,1,6.385,3.474l-.71.437q-1.142-.635-2.281-1.27c-.477.392-.954.781-1.426,1.176.366.875.75,1.744,1.13,2.613-.2.057-.406.114-.605.173-.8-2.216-1.826-4.343-2.494-6.6m.9,1.258c.261.713.531,1.423.8,2.133.375-.347.753-.7,1.131-1.042Q586.666,248.205,585.7,247.668Z" transform="translate(-584.8 -246.41)" fill="#6b3f21"/>
      </g>
    </g>
  </g>
</svg>
