<svg xmlns="http://www.w3.org/2000/svg" xmlns:xlink="http://www.w3.org/1999/xlink" width="104" height="104" viewBox="0 0 104 104">
  <defs>
    <linearGradient id="linear-gradient" x1="0.5" y1="1" x2="0.5" gradientUnits="objectBoundingBox">
      <stop offset="0" stop-color="#ff984e"/>
      <stop offset="1" stop-color="#f17e4f"/>
    </linearGradient>
  </defs>
  <g id="Grupo_10752" data-name="Grupo 10752" transform="translate(-418 -572)">
    <circle id="Elipse_281" data-name="Elipse 281" cx="52" cy="52" r="52" transform="translate(418 572)" fill="url(#linear-gradient)"/>
    <g id="important_devices" transform="translate(-28 314)">
      <rect id="Path" width="48" height="48" transform="translate(474 286)" fill="rgba(0,0,0,0)"/>
      <path id="Icon" d="M46,44H36a2.109,2.109,0,0,1-2-2.2V22a2.109,2.109,0,0,1,2-2.2l10,.022A2.1,2.1,0,0,1,48,22V41.8A2.109,2.109,0,0,1,46,44ZM36,24.2h0V39.6H46V24.2H36ZM30,44H14V39.6h4V35.2H4a4.218,4.218,0,0,1-4-4.4V4.4A4.219,4.219,0,0,1,4,0H40a4.219,4.219,0,0,1,4,4.4v11H40V4.4H4V30.8H30v4.4H26v4.4h4V44ZM17.054,25.679l0-.006,1.884-6.4L14,15.4h6.061L22,8.8l1.94,6.6H30L25.06,19.271l1.877,6.4L22,21.713l-4.941,3.962Z" transform="translate(474 288)" fill="#fff"/>
    </g>
  </g>
</svg>
