<svg xmlns="http://www.w3.org/2000/svg" width="48" height="48" viewBox="0 0 48 48">
  <g id="Grupo_10769" data-name="Grupo 10769" transform="translate(-9359 -609)">
    <rect id="Rectángulo_6193" data-name="Rectángulo 6193" width="48" height="48" transform="translate(9359 609)" fill="none"/>
    <path id="Trazado_31370" data-name="Trazado 31370" d="M931.813,285.071a11.344,11.344,0,0,1-3.467,1.1,7.924,7.924,0,0,0,2.814-4.151c.032-.11-.065-.21-.147-.152a11.784,11.784,0,0,1-3.958,1.8,6.1,6.1,0,0,0-4.821-2.551c-3.642,0-6.6,3.618-6.6,8.078a9.969,9.969,0,0,0,.171,1.842c-5.469-.338-10.32-3.534-13.576-8.391a.033.033,0,0,0-.06.006,9.541,9.541,0,0,0-.867,4.006,8.718,8.718,0,0,0,2.823,6.624c.034.029.016.094-.025.092a5.717,5.717,0,0,1-2.8-.967c-.024-.016-.052,0-.051.037a13.354,13.354,0,0,0,.446,2.956,7.241,7.241,0,0,0,4.851,5,5.66,5.66,0,0,1-1.743.286,5.345,5.345,0,0,1-1.184-.137c-.028-.007-.051.027-.042.06.852,3.127,3.221,5.415,6.037,5.532.038,0,.054.06.024.088a11.77,11.77,0,0,1-8.113,3.377,11.1,11.1,0,0,1-1.572-.111,16.28,16.28,0,0,0,22.49-1.922,25.387,25.387,0,0,0,5.968-12.558,27.366,27.366,0,0,0,.452-4.877c0-.348-.007-.7-.022-1.044a15.3,15.3,0,0,0,3.092-3.825C932,285.156,931.908,285.023,931.813,285.071Z" transform="translate(8467.045 335.887)" fill="#fff"/>
  </g>
</svg>
