<svg xmlns="http://www.w3.org/2000/svg" width="272.628" height="125.973" viewBox="0 0 272.628 125.973">
  <g id="Grupo_10751" data-name="Grupo 10751" transform="translate(-111.033 -191.601)">
    <g id="Grupo_30" data-name="Grupo 30">
      <path id="Trazado_2679" data-name="Trazado 2679" d="M248.376,303.152a14.692,14.692,0,0,0-2.317.867l-.725-1.987a16.346,16.346,0,0,1,2.741-.993,12.636,12.636,0,0,1,3.184-.363,7.3,7.3,0,0,1,5.138,1.657,6.327,6.327,0,0,1,1.8,4.9V317.2h-2.334v-2.458a7.973,7.973,0,0,1-2.285,1.954,6.991,6.991,0,0,1-3.608.852,7.983,7.983,0,0,1-2.223-.315,6.064,6.064,0,0,1-1.954-.961,4.945,4.945,0,0,1-1.389-1.6,4.547,4.547,0,0,1-.519-2.238,4.975,4.975,0,0,1,.5-2.284,4.528,4.528,0,0,1,1.433-1.657,6.984,6.984,0,0,1,2.208-1.008,10.81,10.81,0,0,1,2.821-.345,17.241,17.241,0,0,1,2.742.189,19.7,19.7,0,0,1,2.27.5v-.569a4.182,4.182,0,0,0-1.277-3.325,5.247,5.247,0,0,0-3.579-1.118A9.71,9.71,0,0,0,248.376,303.152Zm-.778,6.7a2.946,2.946,0,0,0-1.227,2.491,2.863,2.863,0,0,0,.33,1.389,3.239,3.239,0,0,0,.9,1.022,4.036,4.036,0,0,0,1.3.646,5.409,5.409,0,0,0,1.556.221,6.65,6.65,0,0,0,2.123-.33,5.678,5.678,0,0,0,1.727-.914,4.334,4.334,0,0,0,1.161-1.388,3.748,3.748,0,0,0,.425-1.781v-1.577q-.911-.252-2.09-.472a14.68,14.68,0,0,0-2.686-.221A5.821,5.821,0,0,0,247.6,309.85Z" fill="#a0482d"/>
      <path id="Trazado_2680" data-name="Trazado 2680" d="M273.044,317.2V294.182h2.426V317.2Z" fill="#a0482d"/>
      <path id="Trazado_2681" data-name="Trazado 2681" d="M284.376,303.152a14.7,14.7,0,0,0-2.318.867l-.725-1.987a16.355,16.355,0,0,1,2.742-.993,12.63,12.63,0,0,1,3.184-.363,7.3,7.3,0,0,1,5.138,1.657,6.327,6.327,0,0,1,1.8,4.9V317.2H291.86v-2.458a7.968,7.968,0,0,1-2.284,1.954,7,7,0,0,1-3.609.852,7.981,7.981,0,0,1-2.222-.315,6.069,6.069,0,0,1-1.955-.961,4.942,4.942,0,0,1-1.388-1.6,4.547,4.547,0,0,1-.519-2.238,4.975,4.975,0,0,1,.5-2.284,4.528,4.528,0,0,1,1.433-1.657,6.984,6.984,0,0,1,2.208-1.008,10.81,10.81,0,0,1,2.821-.345,17.227,17.227,0,0,1,2.741.189,19.654,19.654,0,0,1,2.27.5v-.569a4.181,4.181,0,0,0-1.276-3.325,5.247,5.247,0,0,0-3.579-1.118A9.71,9.71,0,0,0,284.376,303.152Zm-.779,6.7a2.948,2.948,0,0,0-1.226,2.491,2.864,2.864,0,0,0,.33,1.389,3.236,3.236,0,0,0,.9,1.022,4.057,4.057,0,0,0,1.3.646,5.416,5.416,0,0,0,1.557.221,6.644,6.644,0,0,0,2.122-.33,5.684,5.684,0,0,0,1.728-.914,4.334,4.334,0,0,0,1.161-1.388,3.747,3.747,0,0,0,.425-1.781v-1.577c-.608-.168-1.3-.324-2.09-.472a14.7,14.7,0,0,0-2.686-.221A5.827,5.827,0,0,0,283.6,309.85Z" fill="#a0482d"/>
      <path id="Trazado_2682" data-name="Trazado 2682" d="M320.027,316.68a7.653,7.653,0,0,1-3.861.894,8.085,8.085,0,0,1-3.326-.678,8.295,8.295,0,0,1-4.4-4.522,8.635,8.635,0,0,1-.631-3.279,8.762,8.762,0,0,1,.631-3.3,8.519,8.519,0,0,1,1.751-2.727,8.277,8.277,0,0,1,2.647-1.845,8.117,8.117,0,0,1,3.326-.676,9.448,9.448,0,0,1,2.113.219,7.818,7.818,0,0,1,1.734.616,8.031,8.031,0,0,1,1.45.928,12.962,12.962,0,0,1,1.229,1.135l-1.606,1.7a11.5,11.5,0,0,0-2.129-1.733,5.188,5.188,0,0,0-2.821-.725,5.507,5.507,0,0,0-2.3.486,5.619,5.619,0,0,0-1.86,1.353,6.325,6.325,0,0,0-1.23,2.013,7.047,7.047,0,0,0,.015,4.953,6.408,6.408,0,0,0,1.262,2.028,5.792,5.792,0,0,0,1.892,1.35,5.725,5.725,0,0,0,2.379.49,5.525,5.525,0,0,0,2.792-.7,9.26,9.26,0,0,0,2.19-1.734l1.545,1.451A11.052,11.052,0,0,1,320.027,316.68Z" fill="#a0482d"/>
      <path id="Trazado_2683" data-name="Trazado 2683" d="M330.086,303.152a14.692,14.692,0,0,0-2.317.867l-.726-1.987a16.357,16.357,0,0,1,2.742-.993,12.636,12.636,0,0,1,3.184-.363,7.3,7.3,0,0,1,5.138,1.657,6.327,6.327,0,0,1,1.8,4.9V317.2H337.57v-2.458a7.969,7.969,0,0,1-2.284,1.954,6.993,6.993,0,0,1-3.609.852,7.981,7.981,0,0,1-2.222-.315,6.08,6.08,0,0,1-1.955-.961,4.954,4.954,0,0,1-1.388-1.6,4.547,4.547,0,0,1-.519-2.238,4.975,4.975,0,0,1,.5-2.284,4.528,4.528,0,0,1,1.433-1.657,6.984,6.984,0,0,1,2.208-1.008,10.81,10.81,0,0,1,2.821-.345,17.227,17.227,0,0,1,2.741.189,19.655,19.655,0,0,1,2.27.5v-.569a4.181,4.181,0,0,0-1.276-3.325,5.247,5.247,0,0,0-3.579-1.118A9.71,9.71,0,0,0,330.086,303.152Zm-.779,6.7a2.948,2.948,0,0,0-1.226,2.491,2.863,2.863,0,0,0,.33,1.389,3.235,3.235,0,0,0,.9,1.022,4.056,4.056,0,0,0,1.3.646,5.416,5.416,0,0,0,1.557.221,6.644,6.644,0,0,0,2.122-.33,5.684,5.684,0,0,0,1.728-.914,4.334,4.334,0,0,0,1.161-1.388,3.748,3.748,0,0,0,.425-1.781v-1.577c-.608-.168-1.3-.324-2.09-.472a14.688,14.688,0,0,0-2.686-.221A5.827,5.827,0,0,0,329.307,309.85Z" fill="#a0482d"/>
      <path id="Trazado_2684" data-name="Trazado 2684" d="M347.5,317.2h-2.426V300.9H347.5v4.257a8.789,8.789,0,0,1,1.1-1.86,7.37,7.37,0,0,1,1.515-1.465,6.461,6.461,0,0,1,1.861-.932,6.7,6.7,0,0,1,2.175-.283v2.618h-.191a6.678,6.678,0,0,0-2.506.472,5.663,5.663,0,0,0-2.064,1.418,6.732,6.732,0,0,0-1.388,2.349,9.539,9.539,0,0,0-.5,3.231Z" fill="#a0482d"/>
      <path id="Trazado_2685" data-name="Trazado 2685" d="M361.121,312.562a2.542,2.542,0,0,0,.758,2.111,3.09,3.09,0,0,0,1.984.6,5.361,5.361,0,0,0,1.182-.127,5.205,5.205,0,0,0,1.182-.442v2.082a5.38,5.38,0,0,1-1.339.518,6.6,6.6,0,0,1-1.591.174,6.4,6.4,0,0,1-1.828-.25,3.757,3.757,0,0,1-1.468-.8,3.7,3.7,0,0,1-.961-1.436,5.779,5.779,0,0,1-.348-2.11V303.04h-2.27V300.9h2.27V295.98h2.429V300.9h5.171v2.143h-5.171Z" fill="#a0482d"/>
      <path id="Trazado_2686" data-name="Trazado 2686" d="M373.841,303.152a14.73,14.73,0,0,0-2.317.867l-.725-1.987a16.355,16.355,0,0,1,2.742-.993,12.622,12.622,0,0,1,3.183-.363,7.3,7.3,0,0,1,5.138,1.657,6.328,6.328,0,0,1,1.8,4.9V317.2h-2.335v-2.458a7.973,7.973,0,0,1-2.285,1.954,6.991,6.991,0,0,1-3.608.852,7.988,7.988,0,0,1-2.223-.315,6.074,6.074,0,0,1-1.954-.961,4.944,4.944,0,0,1-1.389-1.6,4.558,4.558,0,0,1-.518-2.238,4.975,4.975,0,0,1,.5-2.284,4.525,4.525,0,0,1,1.432-1.657,6.984,6.984,0,0,1,2.208-1.008,10.815,10.815,0,0,1,2.821-.345,17.232,17.232,0,0,1,2.742.189,19.7,19.7,0,0,1,2.27.5v-.569a4.182,4.182,0,0,0-1.277-3.325,5.244,5.244,0,0,0-3.578-1.118A9.717,9.717,0,0,0,373.841,303.152Zm-.778,6.7a2.946,2.946,0,0,0-1.226,2.491,2.864,2.864,0,0,0,.33,1.389,3.236,3.236,0,0,0,.9,1.022,4.046,4.046,0,0,0,1.3.646,5.409,5.409,0,0,0,1.556.221,6.645,6.645,0,0,0,2.123-.33,5.678,5.678,0,0,0,1.727-.914,4.324,4.324,0,0,0,1.162-1.388,3.747,3.747,0,0,0,.424-1.781v-1.577q-.91-.252-2.09-.472a14.677,14.677,0,0,0-2.685-.221A5.827,5.827,0,0,0,373.063,309.85Z" fill="#a0482d"/>
    </g>
    <g id="Grupo_31" data-name="Grupo 31">
      <path id="Trazado_2687" data-name="Trazado 2687" d="M243.633,255.133V207.448a6.021,6.021,0,1,1,12.042,0v47.685a18.491,18.491,0,1,0,36.981,0V207.448a6.021,6.021,0,1,1,12.042,0v47.685a30.533,30.533,0,1,1-61.065,0Z" fill="#dd8328"/>
      <path id="Trazado_2688" data-name="Trazado 2688" d="M378.531,275.571a6.107,6.107,0,0,1-4.746,9.731,6.182,6.182,0,0,1-4.743-2.311l-23.6-30.045-24.694,30.41A6.182,6.182,0,0,1,316,285.667a6.106,6.106,0,0,1-4.743-9.731l26.52-32.845L311.5,210.49a6.036,6.036,0,0,1,1.1-8.516,5.9,5.9,0,0,1,8.392,1.1l24.453,30.169,23.964-30.169a5.9,5.9,0,0,1,8.392-1.1,6.036,6.036,0,0,1,1.1,8.516l-25.791,32.6Z" fill="#d9663a"/>
    </g>
    <g id="Grupo_42" data-name="Grupo 42">
      <g id="Grupo_33" data-name="Grupo 33">
        <g id="Grupo_32" data-name="Grupo 32">
          <path id="Trazado_2689" data-name="Trazado 2689" d="M164.364,192.512a6.228,6.228,0,0,0-6.228,6.229h12.457A6.229,6.229,0,0,0,164.364,192.512Z" fill="#dd8328"/>
          <path id="Trazado_2690" data-name="Trazado 2690" d="M170.593,199.652H158.136a.911.911,0,0,1-.912-.911,7.14,7.14,0,0,1,14.28,0A.91.91,0,0,1,170.593,199.652Zm-11.467-1.822H169.6a5.317,5.317,0,0,0-10.477,0Z" fill="#dd8328"/>
        </g>
      </g>
      <g id="Grupo_34" data-name="Grupo 34">
        <path id="Trazado_2691" data-name="Trazado 2691" d="M116.836,234.2a4.556,4.556,0,0,1-3.306-7.693,71.578,71.578,0,0,1,101.521-2.345,4.557,4.557,0,0,1-6.316,6.572,62.463,62.463,0,0,0-88.594,2.046A4.538,4.538,0,0,1,116.836,234.2Z" fill="#d9663a"/>
      </g>
      <g id="Grupo_37" data-name="Grupo 37">
        <g id="Grupo_35" data-name="Grupo 35">
          <path id="Trazado_2692" data-name="Trazado 2692" d="M157.406,274.116a4.558,4.558,0,0,1-4.557-4.531l-.077-12.694a19.752,19.752,0,0,1-30.507-16.574,4.557,4.557,0,1,1,9.114,0,10.647,10.647,0,0,0,21.294,0,4.556,4.556,0,0,1,4.543-4.557h.014a4.558,4.558,0,0,1,4.557,4.53l.176,29.242a4.56,4.56,0,0,1-4.53,4.584Z" fill="#a0482d"/>
        </g>
        <g id="Grupo_36" data-name="Grupo 36">
          <path id="Trazado_2693" data-name="Trazado 2693" d="M184.764,260.076a19.78,19.78,0,0,1-19.759-19.759,4.557,4.557,0,1,1,9.114,0,10.646,10.646,0,0,0,21.292,0,4.557,4.557,0,1,1,9.114,0A19.782,19.782,0,0,1,184.764,260.076Z" fill="#a0482d"/>
        </g>
      </g>
      <g id="Grupo_38" data-name="Grupo 38">
        <path id="Trazado_2694" data-name="Trazado 2694" d="M170.6,296.723a19.877,19.877,0,0,1-5.608-.814,4.557,4.557,0,1,1,2.574-8.744,10.644,10.644,0,0,0,13.218-7.205,4.556,4.556,0,1,1,8.743,2.57A19.788,19.788,0,0,1,170.6,296.723Z" fill="#a0482d"/>
      </g>
      <g id="Grupo_39" data-name="Grupo 39">
        <line id="Línea_2" data-name="Línea 2" x2="100.526" transform="translate(114.97 305.007)" fill="#2c3253"/>
        <path id="Trazado_2695" data-name="Trazado 2695" d="M215.5,305.919H114.97a.911.911,0,0,1,0-1.823H215.5a.911.911,0,0,1,0,1.823Z" fill="#d9663a"/>
      </g>
      <g id="Grupo_41" data-name="Grupo 41">
        <g id="Grupo_40" data-name="Grupo 40">
          <path id="Trazado_2696" data-name="Trazado 2696" d="M216.117,317.089H115.59a4.557,4.557,0,1,1,0-9.114H216.117a4.557,4.557,0,1,1,0,9.114Z" fill="#dd8328"/>
        </g>
      </g>
    </g>
  </g>
</svg>
