<svg xmlns="http://www.w3.org/2000/svg" width="32" height="32" viewBox="0 0 32 32">
  <g id="Grupo_10776" data-name="Grupo 10776" transform="translate(-1085 -619)">
    <g id="whatsapp" transform="translate(1087.31 622)">
      <path id="Trazado_31371" data-name="Trazado 31371" d="M13.579.015A12.505,12.505,0,0,0,3.051,18.177L1.724,24.619a.487.487,0,0,0,.589.572l6.312-1.5A12.5,12.5,0,1,0,13.579.015Zm7.532,19.407A9.794,9.794,0,0,1,9.834,21.267l-.879-.438-3.87.917L5.9,17.792l-.433-.848a9.8,9.8,0,0,1,1.8-11.364A9.788,9.788,0,1,1,21.111,19.421Z" transform="translate(0 0)" fill="#fff"/>
      <path id="Trazado_31372" data-name="Trazado 31372" d="M116.945,116.153l-2.421-.7a.9.9,0,0,0-.893.235l-.592.6a.882.882,0,0,1-.959.2,12.926,12.926,0,0,1-4.17-3.677.882.882,0,0,1,.07-.978l.517-.669a.9.9,0,0,0,.111-.917l-1.019-2.3a.9.9,0,0,0-1.41-.323,4.072,4.072,0,0,0-1.575,2.4c-.172,1.7.556,3.835,3.307,6.4,3.178,2.967,5.724,3.358,7.381,2.957a4.072,4.072,0,0,0,2.165-1.888A.9.9,0,0,0,116.945,116.153Z" transform="translate(-96.688 -100.942)" fill="#fff"/>
    </g>
    <rect id="Rectángulo_6206" data-name="Rectángulo 6206" width="32" height="32" transform="translate(1085 619)" fill="none"/>
  </g>
</svg>
