<svg xmlns="http://www.w3.org/2000/svg" width="134.314" height="62.062" viewBox="0 0 134.314 62.062">
  <g id="Grupo_44" data-name="Grupo 44" transform="translate(-111.033 -191.601)">
    <g id="Grupo_30" data-name="Grupo 30" transform="translate(176.483 242.139)">
      <path id="Trazado_2679" data-name="Trazado 2679" d="M246.1,301.9a7.242,7.242,0,0,0-1.141.427l-.357-.979a8.054,8.054,0,0,1,1.35-.489,6.225,6.225,0,0,1,1.569-.179,3.6,3.6,0,0,1,2.531.816,3.117,3.117,0,0,1,.886,2.415v4.907h-1.15V307.6a3.928,3.928,0,0,1-1.126.963,3.444,3.444,0,0,1-1.778.42,3.934,3.934,0,0,1-1.1-.155,2.988,2.988,0,0,1-.963-.473,2.436,2.436,0,0,1-.684-.786,2.24,2.24,0,0,1-.256-1.1,2.451,2.451,0,0,1,.248-1.125,2.231,2.231,0,0,1,.706-.816,3.441,3.441,0,0,1,1.088-.5,5.327,5.327,0,0,1,1.39-.17,8.494,8.494,0,0,1,1.351.093,9.7,9.7,0,0,1,1.118.248v-.28a2.06,2.06,0,0,0-.629-1.638,2.585,2.585,0,0,0-1.763-.551A4.784,4.784,0,0,0,246.1,301.9Zm-.383,3.3a1.452,1.452,0,0,0-.6,1.227,1.411,1.411,0,0,0,.163.684,1.6,1.6,0,0,0,.442.5,1.988,1.988,0,0,0,.642.318,2.664,2.664,0,0,0,.767.109,3.276,3.276,0,0,0,1.046-.163,2.8,2.8,0,0,0,.851-.45,2.135,2.135,0,0,0,.572-.684,1.846,1.846,0,0,0,.209-.877v-.777q-.449-.124-1.03-.233a7.236,7.236,0,0,0-1.323-.109A2.868,2.868,0,0,0,245.713,305.2Z" transform="translate(-243.883 -297.477)" fill="#fff"/>
      <path id="Trazado_2680" data-name="Trazado 2680" d="M273.044,305.52V294.182h1.2V305.52Z" transform="translate(-258.677 -294.182)" fill="#fff"/>
      <path id="Trazado_2681" data-name="Trazado 2681" d="M282.1,301.9a7.247,7.247,0,0,0-1.142.427l-.357-.979a8.058,8.058,0,0,1,1.351-.489,6.222,6.222,0,0,1,1.569-.179,3.6,3.6,0,0,1,2.531.816,3.117,3.117,0,0,1,.886,2.415v4.907h-1.15V307.6a3.926,3.926,0,0,1-1.125.963,3.446,3.446,0,0,1-1.778.42,3.933,3.933,0,0,1-1.095-.155,2.99,2.99,0,0,1-.963-.473,2.434,2.434,0,0,1-.684-.786,2.24,2.24,0,0,1-.256-1.1,2.451,2.451,0,0,1,.248-1.125,2.231,2.231,0,0,1,.706-.816,3.441,3.441,0,0,1,1.088-.5,5.326,5.326,0,0,1,1.39-.17,8.488,8.488,0,0,1,1.35.093,9.68,9.68,0,0,1,1.118.248v-.28a2.06,2.06,0,0,0-.629-1.638,2.585,2.585,0,0,0-1.763-.551A4.783,4.783,0,0,0,282.1,301.9Zm-.384,3.3a1.452,1.452,0,0,0-.6,1.227,1.411,1.411,0,0,0,.163.684,1.594,1.594,0,0,0,.441.5,2,2,0,0,0,.642.318,2.667,2.667,0,0,0,.767.109,3.273,3.273,0,0,0,1.045-.163,2.8,2.8,0,0,0,.851-.45,2.135,2.135,0,0,0,.572-.684,1.846,1.846,0,0,0,.209-.877v-.777c-.3-.083-.642-.16-1.03-.233a7.243,7.243,0,0,0-1.323-.109A2.871,2.871,0,0,0,281.713,305.2Z" transform="translate(-262.147 -297.477)" fill="#fff"/>
      <path id="Trazado_2682" data-name="Trazado 2682" d="M313.829,308.5a3.771,3.771,0,0,1-1.9.44,3.983,3.983,0,0,1-1.639-.334,4.086,4.086,0,0,1-2.167-2.228,4.254,4.254,0,0,1-.311-1.615,4.316,4.316,0,0,1,.311-1.623,4.2,4.2,0,0,1,.863-1.344,4.078,4.078,0,0,1,1.3-.909,4,4,0,0,1,1.639-.333,4.654,4.654,0,0,1,1.041.108,3.849,3.849,0,0,1,.854.3,3.956,3.956,0,0,1,.714.457,6.387,6.387,0,0,1,.605.559l-.791.839a5.666,5.666,0,0,0-1.049-.854,2.556,2.556,0,0,0-1.39-.357,2.713,2.713,0,0,0-1.134.239,2.768,2.768,0,0,0-.916.667,3.116,3.116,0,0,0-.606.992,3.472,3.472,0,0,0,.007,2.44,3.157,3.157,0,0,0,.622,1,2.853,2.853,0,0,0,.932.665,2.821,2.821,0,0,0,1.172.241,2.722,2.722,0,0,0,1.376-.343,4.563,4.563,0,0,0,1.079-.854l.761.715A5.445,5.445,0,0,1,313.829,308.5Z" transform="translate(-276.316 -297.414)" fill="#fff"/>
      <path id="Trazado_2683" data-name="Trazado 2683" d="M327.807,301.9a7.242,7.242,0,0,0-1.141.427l-.358-.979a8.058,8.058,0,0,1,1.351-.489,6.225,6.225,0,0,1,1.569-.179,3.6,3.6,0,0,1,2.531.816,3.117,3.117,0,0,1,.886,2.415v4.907h-1.15V307.6a3.926,3.926,0,0,1-1.125.963,3.445,3.445,0,0,1-1.778.42,3.933,3.933,0,0,1-1.095-.155,3,3,0,0,1-.963-.473,2.44,2.44,0,0,1-.684-.786,2.24,2.24,0,0,1-.256-1.1,2.451,2.451,0,0,1,.248-1.125,2.231,2.231,0,0,1,.706-.816,3.441,3.441,0,0,1,1.088-.5,5.327,5.327,0,0,1,1.39-.17,8.487,8.487,0,0,1,1.35.093,9.677,9.677,0,0,1,1.118.248v-.28a2.06,2.06,0,0,0-.629-1.638,2.585,2.585,0,0,0-1.763-.551A4.783,4.783,0,0,0,327.807,301.9Zm-.384,3.3a1.453,1.453,0,0,0-.6,1.227,1.41,1.41,0,0,0,.163.684,1.594,1.594,0,0,0,.441.5,2,2,0,0,0,.642.318,2.667,2.667,0,0,0,.767.109,3.273,3.273,0,0,0,1.045-.163,2.8,2.8,0,0,0,.851-.45,2.135,2.135,0,0,0,.572-.684,1.846,1.846,0,0,0,.209-.877v-.777c-.3-.083-.642-.16-1.03-.233a7.24,7.24,0,0,0-1.323-.109A2.871,2.871,0,0,0,327.423,305.2Z" transform="translate(-285.338 -297.477)" fill="#fff"/>
      <path id="Trazado_2684" data-name="Trazado 2684" d="M346.271,308.782h-1.2v-8.03h1.2v2.1a4.331,4.331,0,0,1,.543-.916,3.632,3.632,0,0,1,.746-.722,3.184,3.184,0,0,1,.917-.459,3.3,3.3,0,0,1,1.072-.139v1.29h-.094a3.29,3.29,0,0,0-1.235.233,2.789,2.789,0,0,0-1.017.7,3.317,3.317,0,0,0-.684,1.157,4.7,4.7,0,0,0-.248,1.592Z" transform="translate(-295.222 -297.444)" fill="#fff"/>
      <path id="Trazado_2685" data-name="Trazado 2685" d="M358.737,304.149a1.252,1.252,0,0,0,.373,1.04,1.522,1.522,0,0,0,.977.3,2.641,2.641,0,0,0,.582-.063,2.564,2.564,0,0,0,.582-.218v1.026a2.65,2.65,0,0,1-.66.255,3.252,3.252,0,0,1-.784.086,3.154,3.154,0,0,1-.9-.123,1.851,1.851,0,0,1-.723-.4,1.822,1.822,0,0,1-.473-.707,2.848,2.848,0,0,1-.171-1.04v-4.847h-1.118V298.4h1.118V295.98h1.2V298.4h2.548v1.056h-2.548Z" transform="translate(-300.978 -295.094)" fill="#fff"/>
      <path id="Trazado_2686" data-name="Trazado 2686" d="M371.562,301.9a7.26,7.26,0,0,0-1.142.427l-.357-.979a8.058,8.058,0,0,1,1.351-.489,6.218,6.218,0,0,1,1.568-.179,3.6,3.6,0,0,1,2.531.816,3.117,3.117,0,0,1,.886,2.415v4.907h-1.15V307.6a3.929,3.929,0,0,1-1.126.963,3.444,3.444,0,0,1-1.778.42,3.936,3.936,0,0,1-1.1-.155,2.993,2.993,0,0,1-.963-.473,2.436,2.436,0,0,1-.684-.786,2.245,2.245,0,0,1-.255-1.1,2.451,2.451,0,0,1,.248-1.125,2.229,2.229,0,0,1,.706-.816,3.441,3.441,0,0,1,1.088-.5,5.329,5.329,0,0,1,1.39-.17,8.49,8.49,0,0,1,1.351.093,9.7,9.7,0,0,1,1.118.248v-.28a2.06,2.06,0,0,0-.629-1.638,2.584,2.584,0,0,0-1.763-.551A4.787,4.787,0,0,0,371.562,301.9Zm-.383,3.3a1.451,1.451,0,0,0-.6,1.227,1.411,1.411,0,0,0,.163.684,1.594,1.594,0,0,0,.441.5,1.994,1.994,0,0,0,.642.318,2.664,2.664,0,0,0,.767.109,3.274,3.274,0,0,0,1.046-.163,2.8,2.8,0,0,0,.851-.45,2.13,2.13,0,0,0,.572-.684,1.846,1.846,0,0,0,.209-.877v-.777q-.449-.124-1.03-.233a7.234,7.234,0,0,0-1.323-.109A2.871,2.871,0,0,0,371.179,305.2Z" transform="translate(-307.537 -297.477)" fill="#fff"/>
    </g>
    <g id="Grupo_31" data-name="Grupo 31" transform="translate(176.36 196.081)">
      <path id="Trazado_2687" data-name="Trazado 2687" d="M243.633,227.855V204.363a2.966,2.966,0,1,1,5.933,0v23.493a9.11,9.11,0,1,0,18.219,0V204.363a2.966,2.966,0,1,1,5.933,0v23.493a15.042,15.042,0,1,1-30.084,0Z" transform="translate(-243.633 -201.035)" fill="#fff"/>
      <path id="Trazado_2688" data-name="Trazado 2688" d="M343.752,237.583a3.009,3.009,0,0,1-2.338,4.794,3.045,3.045,0,0,1-2.337-1.139l-11.626-14.8-12.166,14.982a3.046,3.046,0,0,1-2.339,1.139,3.008,3.008,0,0,1-2.337-4.794l13.065-16.182L310.729,205.52a2.974,2.974,0,0,1,.54-4.2,2.908,2.908,0,0,1,4.134.54l12.047,14.863,11.806-14.863a2.908,2.908,0,0,1,4.134-.54,2.974,2.974,0,0,1,.54,4.2l-12.706,16.061Z" transform="translate(-277.293 -200.694)" fill="#fff"/>
    </g>
    <g id="Grupo_42" data-name="Grupo 42" transform="translate(111.033 191.601)">
      <g id="Grupo_33" data-name="Grupo 33" transform="translate(22.757)">
        <g id="Grupo_32" data-name="Grupo 32">
          <path id="Trazado_2689" data-name="Trazado 2689" d="M161.2,192.512a3.068,3.068,0,0,0-3.068,3.069h6.137A3.069,3.069,0,0,0,161.2,192.512Z" transform="translate(-157.687 -192.063)" fill="#fff"/>
          <path id="Trazado_2690" data-name="Trazado 2690" d="M163.81,195.567h-6.137a.449.449,0,0,1-.449-.449,3.518,3.518,0,0,1,7.035,0A.448.448,0,0,1,163.81,195.567Zm-5.649-.9h5.162a2.62,2.62,0,0,0-5.162,0Z" transform="translate(-157.224 -191.601)" fill="#fff"/>
        </g>
      </g>
      <g id="Grupo_34" data-name="Grupo 34" transform="translate(0.614 6.202)">
        <path id="Trazado_2691" data-name="Trazado 2691" d="M114.524,218.972a2.245,2.245,0,0,1-1.629-3.79,35.264,35.264,0,0,1,50.016-1.155,2.245,2.245,0,1,1-3.112,3.238,30.773,30.773,0,0,0-43.647,1.008A2.236,2.236,0,0,1,114.524,218.972Z" transform="translate(-112.279 -204.19)" fill="#fff"/>
      </g>
      <g id="Grupo_37" data-name="Grupo 37" transform="translate(5.534 21.755)">
        <g id="Grupo_35" data-name="Grupo 35">
          <path id="Trazado_2692" data-name="Trazado 2692" d="M139.578,254.657a2.246,2.246,0,0,1-2.245-2.232l-.038-6.254a9.731,9.731,0,0,1-15.03-8.165,2.245,2.245,0,1,1,4.49,0,5.245,5.245,0,0,0,10.491,0,2.244,2.244,0,0,1,2.238-2.245h.007a2.246,2.246,0,0,1,2.245,2.232l.087,14.406a2.247,2.247,0,0,1-2.232,2.258Z" transform="translate(-122.265 -235.76)" fill="#fff"/>
        </g>
        <g id="Grupo_36" data-name="Grupo 36" transform="translate(21.056)">
          <path id="Trazado_2693" data-name="Trazado 2693" d="M174.74,247.74a9.745,9.745,0,0,1-9.735-9.735,2.245,2.245,0,1,1,4.49,0,5.245,5.245,0,0,0,10.49,0,2.245,2.245,0,1,1,4.49,0A9.746,9.746,0,0,1,174.74,247.74Z" transform="translate(-165.005 -235.76)" fill="#fff"/>
        </g>
      </g>
      <g id="Grupo_38" data-name="Grupo 38" transform="translate(24.974 41.918)">
        <path id="Trazado_2694" data-name="Trazado 2694" d="M166.1,286.557a9.793,9.793,0,0,1-2.763-.4,2.245,2.245,0,0,1,1.268-4.308,5.244,5.244,0,0,0,6.512-3.55,2.245,2.245,0,1,1,4.307,1.266,9.749,9.749,0,0,1-9.325,6.992Z" transform="translate(-161.725 -276.685)" fill="#fff"/>
      </g>
      <g id="Grupo_39" data-name="Grupo 39" transform="translate(1.491 55.422)">
        <line id="Línea_2" data-name="Línea 2" x2="49.526" transform="translate(0.449 0.449)" fill="#2c3253"/>
        <path id="Trazado_2695" data-name="Trazado 2695" d="M164.033,304.994H114.508a.449.449,0,0,1,0-.9h49.525a.449.449,0,0,1,0,.9Z" transform="translate(-114.059 -304.096)" fill="#fff"/>
      </g>
      <g id="Grupo_41" data-name="Grupo 41" transform="translate(0 57.333)">
        <g id="Grupo_40" data-name="Grupo 40">
          <path id="Trazado_2696" data-name="Trazado 2696" d="M162.8,312.465H113.278a2.245,2.245,0,1,1,0-4.49H162.8a2.245,2.245,0,1,1,0,4.49Z" transform="translate(-111.033 -307.975)" fill="#fff"/>
        </g>
      </g>
    </g>
  </g>
</svg>
