<svg xmlns="http://www.w3.org/2000/svg" width="1221.6" height="289" viewBox="0 0 1221.6 289">
  <g id="Grupo_10771" data-name="Grupo 10771" transform="translate(0 -1451)">
    <rect id="Rectángulo_32" data-name="Rectángulo 32" width="1221.6" height="289" transform="translate(0 1451)" fill="#ff984e"/>
    <g id="Grupo_10758" data-name="Grupo 10758" transform="translate(283 1449)">
      <g id="Grupo_47" data-name="Grupo 47" transform="translate(527.39 87)">
        <path id="Trazado_2699" data-name="Trazado 2699" d="M309.967,255.731V243.052q56.709-32.627,70.008-82.76-14.387,9.359-26.168,9.364-19.635,0-33.156-15.862T307.125,115q0-25.371,17.774-42.594,17.784-17.2,43.736-17.218t43.4,21.9Q429.5,99,429.5,131.6q0,45.932-35.121,82.309T309.967,255.731Zm-148.769,0V243.052q56.723-32.627,70.017-82.76-14.387,9.359-26.386,9.364-19.423,0-32.948-15.862T158.365,115q0-25.371,17.669-42.594Q193.7,55.2,219.66,55.191q26.168,0,43.515,21.9t17.347,54.5q0,45.932-35.016,82.309T161.2,255.731Z" transform="translate(-158.365 -55.191)" fill="#f17e4f"/>
      </g>
      <g id="Grupo_48" data-name="Grupo 48" transform="translate(-143 5)">
        <path id="Trazado_2699-2" data-name="Trazado 2699" d="M277.894,55.191V67.87q-56.709,32.627-70.008,82.76,14.387-9.359,26.168-9.364,19.635,0,33.156,15.862t13.526,38.791q0,25.371-17.774,42.594-17.784,17.2-43.736,17.218t-43.4-21.9q-17.462-21.9-17.458-54.5,0-45.932,35.121-82.309T277.894,55.191Zm148.769,0V67.87Q369.94,100.5,356.646,150.63q14.387-9.359,26.386-9.364,19.423,0,32.948,15.862T429.5,195.919q0,25.371-17.669,42.594-17.669,17.2-43.625,17.218-26.168,0-43.515-21.9t-17.347-54.5q0-45.932,35.016-82.309T426.663,55.191Z" transform="translate(-158.365 -55.191)" fill="#f17e4f"/>
      </g>
    </g>
  </g>
</svg>
