<svg xmlns="http://www.w3.org/2000/svg" xmlns:xlink="http://www.w3.org/1999/xlink" width="489" height="493.233" viewBox="0 0 489 493.233">
  <defs>
    <filter id="Elipse_329" x="27" y="1.233" width="462" height="470" filterUnits="userSpaceOnUse">
      <feOffset dy="3" input="SourceAlpha"/>
      <feGaussianBlur stdDeviation="3" result="blur"/>
      <feFlood flood-opacity="0.161"/>
      <feComposite operator="in" in2="blur"/>
      <feComposite in="SourceGraphic"/>
    </filter>
  </defs>
  <g id="Grupo_10780" data-name="Grupo 10780" transform="translate(-265 -420)">
    <g transform="matrix(1, 0, 0, 1, 265, 420)" filter="url(#Elipse_329)">
      <ellipse id="Elipse_329-2" data-name="Elipse 329" cx="222" cy="226" rx="222" ry="226" transform="translate(36 7.23)" fill="#fff"/>
    </g>
    <g id="Grupo_10728" data-name="Grupo 10728" transform="translate(338.582 420)">
      <g id="Grupo_10725" data-name="Grupo 10725" transform="translate(27.807)">
        <path id="Trazado_31294" data-name="Trazado 31294" d="M2132.127,474.282c0-14.5-12.783-26.239-31.952-26.239-15.932,0-21.405,8.791-21.405,8.791s-15.058,3.254-15.058,21.968v75.02h64.141V487.15A20.177,20.177,0,0,0,2132.127,474.282Zm-29.753,42.377a16.186,16.186,0,0,1-4.328-.677v37.84h-21.893V500.035c-.149-.418-.3-.866-.44-1.337-9.707-.927-9.3-16.967-3.536-16.967a1.6,1.6,0,0,1,.229.018h0c24.245,7.75,40.55-4.949,45.884-13.774,0,6.158,6.815,12.163,9.239,12.709C2127.171,502.689,2111.429,516.659,2102.374,516.659Z" transform="translate(-2059.005 -448.043)" fill="#a0482d"/>
        <path id="Trazado_31295" data-name="Trazado 31295" d="M2099.264,512.219v-1.4a16.185,16.185,0,0,0,4.329.677c9.054,0,24.8-13.969,25.155-35.976-2.424-.546-9.239-6.552-9.239-12.709-5.334,8.825-21.639,21.524-45.884,13.774h0a1.6,1.6,0,0,0-.229-.018c-5.768,0-6.171,16.04,3.536,16.967.143.471.29.919.44,1.337v17.548l-17.148,8.083v21.163h56.98V520.307l-17.939-8.087Z" transform="translate(-2060.223 -442.885)" fill="#fcbeb7"/>
        <path id="Trazado_31296" data-name="Trazado 31296" d="M2111,531.351V509.987l-17.939-8.087v-1.4c-5.073-1.431-10.839-4.9-15.074-8.134Z" transform="translate(-2054.02 -432.565)" fill="#f9afab"/>
        <circle id="Elipse_330" data-name="Elipse 330" cx="5.972" cy="5.972" r="5.972" transform="translate(21.376 39.274)" fill="#f49795"/>
        <path id="Trazado_31297" data-name="Trazado 31297" d="M2112.85,478.167a42.533,42.533,0,0,1-3.63,10.923,5.973,5.973,0,1,1,3.63-10.923Z" transform="translate(-2045.093 -437.878)" fill="#f49795"/>
        <g id="Grupo_10720" data-name="Grupo 10720" transform="translate(25.646 25.934)">
          <circle id="Elipse_331" data-name="Elipse 331" cx="7.356" cy="7.356" r="7.356" transform="matrix(0.924, -0.383, 0.383, 0.924, 22.397, 5.63)" fill="none"/>
          <circle id="Elipse_332" data-name="Elipse 332" cx="7.356" cy="7.356" r="7.356" transform="matrix(0.924, -0.383, 0.383, 0.924, 0, 5.63)" fill="none"/>
          <path id="Trazado_31298" data-name="Trazado 31298" d="M2110.943,468.116a8.474,8.474,0,0,0-8.415,7.557,6.507,6.507,0,0,0-5.568,0,8.473,8.473,0,1,0,.042,1.221,5.473,5.473,0,0,1,5.484.009,8.463,8.463,0,1,0,8.457-8.783Zm-22.4,15.819a7.356,7.356,0,1,1,7.356-7.356A7.365,7.365,0,0,1,2088.546,483.935Zm22.4,0a7.356,7.356,0,1,1,7.356-7.356A7.365,7.365,0,0,1,2110.943,483.935Z" transform="translate(-2078.934 -466.967)" fill="#fff"/>
        </g>
        <g id="Grupo_10723" data-name="Grupo 10723" transform="translate(34.418 36.938)">
          <g id="Grupo_10721" data-name="Grupo 10721" transform="translate(22.034)">
            <path id="Trazado_31299" data-name="Trazado 31299" d="M2103.273,480.093a1.208,1.208,0,0,1-1.209-1.207v-2.257a1.208,1.208,0,0,1,2.417,0v2.257A1.208,1.208,0,0,1,2103.273,480.093Z" transform="translate(-2102.064 -475.421)" fill="#311643"/>
          </g>
          <g id="Grupo_10722" data-name="Grupo 10722">
            <path id="Trazado_31300" data-name="Trazado 31300" d="M2086.94,480.093a1.207,1.207,0,0,1-1.208-1.207v-2.257a1.208,1.208,0,1,1,2.415,0v2.257A1.208,1.208,0,0,1,2086.94,480.093Z" transform="translate(-2085.733 -475.421)" fill="#311643"/>
          </g>
        </g>
        <g id="Grupo_10724" data-name="Grupo 10724" transform="translate(38.079 50.983)">
          <path id="Trazado_31301" data-name="Trazado 31301" d="M2094.615,490.151a6.9,6.9,0,0,1-4.513-1.549,6.157,6.157,0,0,1-1.607-1.99.554.554,0,0,1,1.009-.456h0c.062.136,1.594,3.347,6.042,2.833a.554.554,0,1,1,.128,1.1A9.106,9.106,0,0,1,2094.615,490.151Z" transform="translate(-2088.447 -485.831)" fill="#311643"/>
        </g>
      </g>
      <path id="Trazado_31302" data-name="Trazado 31302" d="M2119.857,749.449l2.265,9.415,24.705,7.759-3.552-17.174Z" transform="translate(-2011.592 -342.796)" fill="#fcbeb7"/>
      <path id="Trazado_31303" data-name="Trazado 31303" d="M2058.649,749.449l.674,11.631-1.539.568-1.015,4.98,24.681-7.763.617-9.415Z" transform="translate(-2033.622 -342.796)" fill="#fcbeb7"/>
      <path id="Trazado_31304" data-name="Trazado 31304" d="M2165.3,767.844l-20.084-8.635,1.029,4.977-24.7-7.758v7.079a7.074,7.074,0,0,0,3.349,6.013l2.124,6.074a1.309,1.309,0,0,0,2.544-.432v-3.952l16.885,5.26h17.081a4.5,4.5,0,0,0,4.5-4.5h0A4.5,4.5,0,0,0,2165.3,767.844Z" transform="translate(-2011.006 -340.359)" fill="#a34121"/>
      <path id="Trazado_31305" data-name="Trazado 31305" d="M2087.1,763.456l-.021-7.079-24.683,7.831,1.015-4.98-20.058,8.693a4.5,4.5,0,0,0-2.708,4.141h0a4.5,4.5,0,0,0,4.51,4.483l17.081-.05,17.46-5.5.012,4.138a1.309,1.309,0,0,0,2.547.424l2.3-6.652A7.071,7.071,0,0,0,2087.1,763.456Z" transform="translate(-2039.251 -340.377)" fill="#a34121"/>
      <path id="Trazado_31306" data-name="Trazado 31306" d="M2064.128,573.93l-9.113,38.587a121.018,121.018,0,0,0-3.079,34.04l8.457,164.181h23.418l10-170.389,49.821,170.389h23.418L2125.815,573.93Z" transform="translate(-2035.365 -404.085)" fill="#a0482d"/>
      <g id="Grupo_10726" data-name="Grupo 10726" transform="translate(0 72.007)">
        <path id="Trazado_31307" data-name="Trazado 31307" d="M2087.517,515.611c4.158,0,7.484-4,9.726-8.06h-23.711C2077.147,511.6,2082.1,515.611,2087.517,515.611Z" transform="translate(-2027.769 -499.271)" fill="#ff984e"/>
        <path id="Trazado_31308" data-name="Trazado 31308" d="M2140.23,520.983a28.517,28.517,0,0,0-13.828-13.257l-14.072-6.311a29.622,29.622,0,0,1-3.243,8.28c-2.242,4.056-5.568,8.06-9.727,8.06-5.415,0-10.37-4.015-13.985-8.06a51.039,51.039,0,0,1-5.962-8.238l-16.327,7.564a24.327,24.327,0,0,0-13.381,16.2l-9.542,38.374a18.619,18.619,0,0,0,4.737,17.491h0c7.514-2.638,21.621-8.128,21.621-8.128l1.853,26.294h61.688l15.324-67.957Z" transform="translate(-2039.613 -501.414)" fill="#ff984e"/>
      </g>
      <g id="Grupo_10727" data-name="Grupo 10727" transform="translate(34.665 73.764)">
        <path id="Trazado_31309" data-name="Trazado 31309" d="M2091,523.068a20.22,20.22,0,0,1-10.373-3.1,37.022,37.022,0,0,1-8.1-6.759,55.984,55.984,0,0,1-7.22-9.828l.917-.425a54.58,54.58,0,0,0,7.058,9.586,36.012,36.012,0,0,0,7.872,6.567,19.222,19.222,0,0,0,9.847,2.955,12.361,12.361,0,0,0,8.192-3.036,20.652,20.652,0,0,0,5.011-6.78,35.714,35.714,0,0,0,3.075-9.531l.949.426a34.651,34.651,0,0,1-3.109,9.524,21.652,21.652,0,0,1-5.265,7.121A13.346,13.346,0,0,1,2091,523.068Z" transform="translate(-2065.306 -502.716)" fill="#fff"/>
      </g>
      <circle id="Elipse_333" data-name="Elipse 333" cx="11.209" cy="11.209" r="11.209" transform="translate(85.908 278.446)" fill="#d3654b"/>
      <circle id="Elipse_334" data-name="Elipse 334" cx="11.209" cy="11.209" r="11.209" transform="translate(27.181 278.446)" fill="#d3654b"/>
      <path id="Trazado_31310" data-name="Trazado 31310" d="M2060.034,511.86a7.159,7.159,0,0,1-11.4,5.766,24.309,24.309,0,0,1,9.961-10.076A7.133,7.133,0,0,1,2060.034,511.86Z" transform="translate(-2036.463 -427.264)" fill="#d3654b"/>
      <path id="Trazado_31311" data-name="Trazado 31311" d="M2088.733,600.7l47.47-1.793a5.833,5.833,0,0,0,5.368-4.154l20.755-69.185a2.238,2.238,0,0,0-2.228-2.879l-48.005,1.813a5.085,5.085,0,0,0-4.679,3.62l-20.908,69.7A2.238,2.238,0,0,0,2088.733,600.7Z" transform="translate(-2023.272 -421.977)" fill="#707070"/>
      <path id="Trazado_31312" data-name="Trazado 31312" d="M2126.049,553.579l8.305,8.31,1.417-4.722Z" transform="translate(-2009.43 -411.191)" fill="#2f3d6c"/>
      <path id="Trazado_31313" data-name="Trazado 31313" d="M2139.24,544.044l-11.967.791a1.668,1.668,0,0,0-1.559,1.682h0l-1.189.074a1.6,1.6,0,0,0-1.494,1.413l-.147,1.244h-.005a1.6,1.6,0,0,0-1.583,1.623h0a1.605,1.605,0,0,0,1.011,1.471l2.679,1.064h0a3.489,3.489,0,0,0,2.025,3.18l8.329,3.851a7.077,7.077,0,0,0,3.875.594h0a7.067,7.067,0,0,0,6-5.532l.518-2.423a7.84,7.84,0,0,0-2.146-7.2h0A6.308,6.308,0,0,0,2139.24,544.044Z" transform="translate(-2011.09 -414.521)" fill="#fcbeb7"/>
      <path id="Trazado_31314" data-name="Trazado 31314" d="M2090.563,510.622l8.167,19.964a9.031,9.031,0,0,0,1.966,2.972l1.452,1.449a.458.458,0,0,0,.814-.333l.021-2.051a9.029,9.029,0,0,0-.682-3.5l-8.168-19.962a2.187,2.187,0,0,0-2.684-1.469h0A2.186,2.186,0,0,0,2090.563,510.622Z" transform="translate(-2021.896 -427.256)" fill="#a34121"/>
      <path id="Trazado_31315" data-name="Trazado 31315" d="M2118.3,520.786l-4.484-6.175a3.411,3.411,0,0,0-2.452-1.392l-7.519-.681a3.772,3.772,0,0,0-2.817.911l-3.917,3.4a6.824,6.824,0,0,0-1.422,1.721l-4.805,7.626-45.563,36.813a9.809,9.809,0,0,0-.858,14.48h0a9.808,9.808,0,0,0,14.444-.433l38.476-44.5,8.093-4.976,5.973.205a2.872,2.872,0,0,0,2.906-2.261l.328-.39a2.866,2.866,0,0,0,.621-2.422l-.341-1.685,1.931,1.247a1.041,1.041,0,0,0,1.407-1.487Z" transform="translate(-2038.894 -425.528)" fill="#fcbeb7"/>
      <path id="Trazado_31316" data-name="Trazado 31316" d="M2059.557,559.488l16.86-19.5L2060.2,568.579Z" transform="translate(-2032.648 -415.937)" fill="#d3654b"/>
      <path id="Trazado_31317" data-name="Trazado 31317" d="M2088.132,580.771,2116,588.446l-1.509-8.671Z" transform="translate(-2022.67 -402.044)" fill="#d3654b"/>
      <path id="Trazado_31318" data-name="Trazado 31318" d="M2115.011,515.117a7.451,7.451,0,0,1-10.308-6.877,7.533,7.533,0,0,1,.2-1.714A28.47,28.47,0,0,1,2115.011,515.117Z" transform="translate(-2016.884 -427.621)" fill="#d3654b"/>
      <circle id="Elipse_335" data-name="Elipse 335" cx="6.926" cy="6.926" r="6.926" transform="translate(5.876 139.573)" fill="#f9afab"/>
    </g>
    <g id="Grupo_10740" data-name="Grupo 10740" transform="translate(507.965 489.254)">
      <g id="Grupo_10731" data-name="Grupo 10731" transform="translate(45.882 101.01)">
        <path id="Trazado_31319" data-name="Trazado 31319" d="M1095.973,686.4l15.265,126.548h5.006L1100.98,686.4Z" transform="translate(-1028.519 -544.199)" fill="#bbb"/>
        <path id="Trazado_31320" data-name="Trazado 31320" d="M1050.706,686.4l1.717,14.232,13.547,112.316h5.007l-13.614-112.872-1.649-13.676Z" transform="translate(-915.797 -544.199)" fill="#bbb"/>
        <path id="Trazado_31321" data-name="Trazado 31321" d="M1095.973,812.949h5.007l2.11-17.5,2.5-20.752,8.234-68.259,2.417-20.036h-5.007l-2.486,20.608-5.661,46.932-2.5,20.751Z" transform="translate(-1028.519 -544.199)" fill="#bbb"/>
        <path id="Trazado_31322" data-name="Trazado 31322" d="M1141.24,812.949h5.007l11.846-98.223h0l3.415-28.325H1156.5l-3.482,28.872Z" transform="translate(-1141.24 -544.199)" fill="#d2dcff"/>
        <g id="Grupo_10730" data-name="Grupo 10730" transform="translate(66.637 57.607)">
          <rect id="Rectángulo_6181" data-name="Rectángulo 6181" width="5.007" height="76.549" transform="translate(68.027)" fill="#bbb"/>
          <rect id="Rectángulo_6182" data-name="Rectángulo 6182" width="5.006" height="76.549" transform="translate(0)" fill="#bbb"/>
        </g>
        <path id="Trazado_31323" data-name="Trazado 31323" d="M1103.874,681h68.784a4.023,4.023,0,0,0-4.024,4.022h0a4.024,4.024,0,0,0,4.024,4.023h-68.784a4.024,4.024,0,0,1-4.023-4.023h0A4.022,4.022,0,0,1,1103.874,681Z" transform="translate(-1090.712 -546.845)" fill="#bbb"/>
        <path id="Trazado_31324" data-name="Trazado 31324" d="M1057.3,685.024h0A4.022,4.022,0,0,1,1061.32,681h59.389a4.021,4.021,0,0,1,4.022,4.022h0a4.022,4.022,0,0,1-4.022,4.023H1061.32A4.024,4.024,0,0,1,1057.3,685.024Z" transform="translate(-979.375 -546.845)" fill="#707070"/>
        <rect id="Rectángulo_6183" data-name="Rectángulo 6183" width="92.428" height="57.607" rx="3.763" transform="translate(56.94)" fill="#bbb"/>
        <path id="Trazado_31325" data-name="Trazado 31325" d="M1059.842,686.4l1.717,14.232,4.94-.557-1.649-13.675Z" transform="translate(-924.934 -544.199)" fill="#707070"/>
        <path id="Trazado_31326" data-name="Trazado 31326" d="M1098.458,686.4l-2.485,20.609,5.075-.572,2.417-20.036Z" transform="translate(-1015.741 -544.199)" fill="#707070"/>
        <path id="Trazado_31327" data-name="Trazado 31327" d="M1141.24,715.272q2.425-.259,5.072-.547h0l3.416-28.325h-5.007Z" transform="translate(-1129.459 -544.199)" fill="#707070"/>
        <path id="Trazado_31328" data-name="Trazado 31328" d="M1066.119,629.632h-5.007V640.2l5.007-.554Z" transform="translate(-926.449 -572.024)" fill="#aec3ff"/>
        <path id="Trazado_31329" data-name="Trazado 31329" d="M1106.765,629.632v18.1l5.006-.554V629.632Z" transform="translate(-1040.127 -572.024)" fill="#aec3ff"/>
      </g>
      <g id="Grupo_10739" data-name="Grupo 10739" transform="translate(0)">
        <g id="Grupo_10737" data-name="Grupo 10737" transform="translate(83.522)">
          <g id="Grupo_10732" data-name="Grupo 10732" transform="translate(1.816 21.972)">
            <path id="Trazado_31330" data-name="Trazado 31330" d="M1084.008,546.563c19.5,3.252,43.81-4.008,46.858-8.631,7.062,10.762,10.65,10.425,10.65,10.425v8.071l1.595-1.594c.491-1.113,1.272-2.216,2.441-2.216,6.422,0,6.871,17.862-3.938,18.9-.213.7-.434,1.354-.659,1.946v28.593h-24.382V590.807a17.816,17.816,0,0,1-4.652.709c-9.612,0-25.993-14.135-27.851-36.683C1083.958,550.577,1084.008,546.563,1084.008,546.563Z" transform="translate(-1083.997 -537.932)" fill="#fcbeb7"/>
          </g>
          <path id="Trazado_31331" data-name="Trazado 31331" d="M1117.262,523.187c16.815,0,20.178,8.968,20.178,8.968,7.174,0,18.16,13.116,11.546,27.69l-.033.033-3.777,3.777v-8.071s-3.588.337-10.65-10.425c-3.047,4.622-27.353,11.882-46.858,8.631,0,0-.051,4.015.061,8.27v.012C1080.444,541,1095.066,523.187,1117.262,523.187Z" transform="translate(-1085.84 -523.187)" fill="#a0482d"/>
          <g id="Grupo_10733" data-name="Grupo 10733" transform="translate(37.307 39.826)">
            <path id="Trazado_31332" data-name="Trazado 31332" d="M1104.087,555.115a1.345,1.345,0,0,0,1.345-1.344v-2.514a1.346,1.346,0,0,0-2.691,0v2.514A1.345,1.345,0,0,0,1104.087,555.115Z" transform="translate(-1102.742 -549.913)" fill="#311643"/>
          </g>
          <g id="Grupo_10734" data-name="Grupo 10734" transform="translate(12.365 39.826)">
            <path id="Trazado_31333" data-name="Trazado 31333" d="M1120.826,555.115a1.346,1.346,0,0,0,1.345-1.344v-2.514a1.346,1.346,0,0,0-2.691,0v2.514A1.345,1.345,0,0,0,1120.826,555.115Z" transform="translate(-1119.48 -549.913)" fill="#311643"/>
          </g>
          <g id="Grupo_10735" data-name="Grupo 10735" transform="translate(27.037 55.919)">
            <path id="Trazado_31334" data-name="Trazado 31334" d="M1107.4,565.523a7.687,7.687,0,0,0,5.026-1.726,6.83,6.83,0,0,0,1.788-2.214.616.616,0,0,0-1.122-.51h0c-.071.153-1.776,3.728-6.729,3.156a.616.616,0,1,0-.141,1.225A10.2,10.2,0,0,0,1107.4,565.523Z" transform="translate(-1105.672 -560.713)" fill="#311643"/>
          </g>
          <ellipse id="Elipse_336" data-name="Elipse 336" cx="6.651" cy="6.651" rx="6.651" ry="6.651" transform="translate(40.932 42.878)" fill="#f49795"/>
          <path id="Trazado_31335" data-name="Trazado 31335" d="M1120.9,553.09a47.435,47.435,0,0,0,4.043,12.165,6.651,6.651,0,1,0-4.043-12.165Z" transform="translate(-1118.321 -509.083)" fill="#f49795"/>
          <path id="Trazado_31337" data-name="Trazado 31337" d="M1095.426,587.545V576.3c5.514-1.515,11.791-5.226,16.508-8.766Z" transform="translate(-1061.034 -501.452)" fill="#f9afab"/>
        </g>
        <path id="Trazado_31338" data-name="Trazado 31338" d="M1146.341,723.347l5.091-.7,4.821-39.968h-5.007Z" transform="translate(-1097.7 -445.011)" fill="#ebedf4"/>
        <path id="Trazado_31339" data-name="Trazado 31339" d="M1071.169,612.406" transform="translate(-900.601 -479.457)" fill="#fcbeb7"/>
        <path id="Trazado_31340" data-name="Trazado 31340" d="M1135.493,607.473l-4.421,8.477h23.565Z" transform="translate(-1073.332 -481.875)" fill="#fcbeb7"/>
        <path id="Trazado_31341" data-name="Trazado 31341" d="M1170.131,756.493v18.248a3.854,3.854,0,0,1-3.853,3.854h-51.759a.892.892,0,0,1-.891-.891V774.34a4.148,4.148,0,0,1,2.421-3.773l29.928-14.074Z" transform="translate(-1062.833 -408.834)" fill="#a34121"/>
        <path id="Trazado_31342" data-name="Trazado 31342" d="M1139.45,749.526l-.013,10.382H1115.3l-1.669-10.382Z" transform="translate(-1032.153 -412.249)" fill="#fcbeb7"/>
        <path id="Trazado_31343" data-name="Trazado 31343" d="M1115.128,573.845l-32.773,14.8a21.493,21.493,0,0,0-10.382,9.987l-12.641,25.32,19.144,8.476-1.587,55.97h95.4l-4.165-52.273,17.253.112v-28.6a21.956,21.956,0,0,0-13.5-20.261l-32.412-13.534S1125.307,583.136,1115.128,573.845Z" transform="translate(-997.171 -498.357)" fill="#e87839"/>
        <g id="Grupo_10738" data-name="Grupo 10738" transform="translate(110.114 77.501)">
          <path id="Trazado_31344" data-name="Trazado 31344" d="M1087.221,576.145a27.613,27.613,0,0,0,17.454,6.15,28.391,28.391,0,0,0,18.536-7.1l1.042.437a29.61,29.61,0,0,1-19.578,7.649,28.587,28.587,0,0,1-18.47-6.7Z" transform="translate(-1086.205 -575.196)" fill="#fff"/>
        </g>
        <path id="Trazado_31345" data-name="Trazado 31345" d="M1204.218,756.493v18.248a3.852,3.852,0,0,1-3.852,3.854h-51.759a.892.892,0,0,1-.893-.891V774.34a4.147,4.147,0,0,1,2.423-3.773l29.928-14.074Z" transform="translate(-1147.715 -408.834)" fill="#a34121"/>
        <path id="Trazado_31346" data-name="Trazado 31346" d="M1173.537,749.526l-.013,10.382h-24.14l-1.669-10.382Z" transform="translate(-1117.033 -412.249)" fill="#fcbeb7"/>
        <path id="Trazado_31347" data-name="Trazado 31347" d="M1215.159,650.721v.976a44.365,44.365,0,0,1-44.364,44.4h-20.609l-2.852,101.86h-25.821L1102.473,676.5a22.326,22.326,0,0,1,22.056-25.784Z" transform="translate(-1090.832 -460.677)" fill="#ff984e"/>
        <path id="Trazado_31348" data-name="Trazado 31348" d="M1162.862,672.089a12.359,12.359,0,1,0,11.011-19.3A22.348,22.348,0,0,0,1162.862,672.089Z" transform="translate(-1151.493 -459.666)" fill="#d3654b"/>
        <path id="Trazado_31349" data-name="Trazado 31349" d="M1137.264,665.419l-2.81,23.472h16.909Z" transform="translate(-1075.099 -453.473)" fill="#a34121"/>
        <path id="Trazado_31350" data-name="Trazado 31350" d="M1181.073,650.721v.976a44.363,44.363,0,0,1-44.363,44.4H1116.1l-2.851,101.86h-25.823L1068.387,676.5a22.325,22.325,0,0,1,22.055-25.784Z" transform="translate(-1005.952 -460.677)" fill="#ff984e"/>
        <path id="Trazado_31351" data-name="Trazado 31351" d="M1134.972,615.773l-.918,31.7a15.843,15.843,0,0,1-15.836,15.384h-55.182l-3.7-12.906,48.674-8.021.344-26.328Z" transform="translate(-946.767 -477.89)" fill="#fcbeb7"/>
        <path id="Trazado_31352" data-name="Trazado 31352" d="M1060.373,645.581a8.164,8.164,0,0,0,2.9,6.25,15.859,15.859,0,0,0,11.914-11.04,8.182,8.182,0,0,0-14.815,4.791Z" transform="translate(-888.532 -467.207)" fill="#f9afab"/>
        <path id="Trazado_31353" data-name="Trazado 31353" d="M1084.671,615.6l-7.472,27.5,7.128-1.175.344-26.328" transform="translate(-923.088 -477.891)" fill="#a34121"/>
        <path id="Trazado_31354" data-name="Trazado 31354" d="M1106.492,637.9l8.7,14.027H1103.4l-3.7-12.906Z" transform="translate(-987.127 -466.961)" fill="#f9afab"/>
        <path id="Trazado_31355" data-name="Trazado 31355" d="M1093.183,613.161h71.953a6.855,6.855,0,0,1,6.589,4.965l13.185,45.928h29.177a2.538,2.538,0,1,1,0,5.077H1100.149l-13.556-47.223A6.856,6.856,0,0,1,1093.183,613.161Z" transform="translate(-1068.64 -479.087)" fill="#707070"/>
        <path id="Trazado_31356" data-name="Trazado 31356" d="M1128.565,671.617a12.36,12.36,0,1,0,11.034-18.844A22.358,22.358,0,0,0,1128.565,671.617Z" transform="translate(-1066.401 -459.671)" fill="#d3654b"/>
        <ellipse id="Elipse_339" data-name="Elipse 339" cx="3.898" cy="2.67" rx="3.898" ry="2.67" transform="translate(61.742 167.995) rotate(-95.024)" fill="#ff984e"/>
        <path id="Trazado_31357" data-name="Trazado 31357" d="M1059.8,593.119a7.237,7.237,0,0,0,13.77,3.113,21.952,21.952,0,0,0-6.051-10.334c-.16-.012-.321-.016-.483-.016A7.237,7.237,0,0,0,1059.8,593.119Z" transform="translate(-886.074 -492.458)" fill="#d3654b"/>
        <path id="Trazado_31358" data-name="Trazado 31358" d="M1127.57,592.994a7.237,7.237,0,0,0,10.444-9.37l-.51.231A21.485,21.485,0,0,0,1127.57,592.994Z" transform="translate(-1052.321 -493.564)" fill="#d3654b"/>
      </g>
    </g>
    <ellipse id="Elipse_340" data-name="Elipse 340" cx="10.5" cy="9.5" rx="10.5" ry="9.5" transform="translate(689 894.233)" fill="#fff"/>
    <circle id="Elipse_341" data-name="Elipse 341" cx="13" cy="13" r="13" transform="translate(265 446.233)" fill="#fff"/>
    <circle id="Elipse_342" data-name="Elipse 342" cx="7.5" cy="7.5" r="7.5" transform="translate(281 488.233)" fill="#fff"/>
    <ellipse id="Elipse_343" data-name="Elipse 343" cx="8" cy="7" rx="8" ry="7" transform="translate(664 873.233)" fill="#fff"/>
  </g>
</svg>
