<svg xmlns="http://www.w3.org/2000/svg" width="873" height="124.068" viewBox="0 0 873 124.068">
  <g id="Grupo_10749" data-name="Grupo 10749" transform="translate(-524 -271.932)">
    <rect id="Rectángulo_25" data-name="Rectángulo 25" width="873" height="73" rx="5" transform="translate(524 323)" fill="#a0482d"/>
    <path id="Trazado_31369" data-name="Trazado 31369" d="M54.94,0c21.274,0,34.7-11.222,34.7-28.641,0-13.219-10.6-23.2-24.028-23.821v-.551c11.016-1.515,19.415-10.4,19.415-21.549,0-15.353-11.773-24.785-31.326-24.785H7.5V0ZM32.771-81.447H47.023c8.468,0,13.425,4.131,13.425,11.084,0,7.16-5.508,11.5-14.665,11.5H32.771Zm0,63.546V-43.512H47.643c10.4,0,16.317,4.544,16.317,12.668,0,8.4-5.783,12.943-16.179,12.943ZM125.578,0V-99.347H100.311V0Zm83.1-20.379H165.854V-40.62H206.13V-59.209H165.854V-78.968h42.823V-99.347h-68.09V0h68.09ZM246.888,0V-58.314h.551L289.78,0h19.966V-99.347H285.787v57.763h-.551L243.1-99.347H222.929V0ZM382.724,0l31.67-99.347H386.717L367.646-24.716H367.1l-19.14-74.631H319.247L350.917,0ZM491.985-20.379H449.162V-40.62h40.276V-59.209H449.162V-78.968h42.823V-99.347H423.9V0h68.09ZM530.2,0V-58.314h.551L573.088,0h19.966V-99.347H569.095v57.763h-.551L526.409-99.347H506.237V0ZM633.33,0V-99.347H608.063V0Zm15.009-99.347V0h40.345c29.949,0,47.643-18.52,47.643-50.259,0-31.67-17.625-49.088-47.643-49.088Zm25.267,20.379h11.773c15.973,0,25.267,10.121,25.267,28.778,0,19.828-8.812,29.811-25.267,29.811H673.605Zm121.31-22.1c-30.086,0-49.088,19.759-49.088,51.429s18.933,51.36,49.088,51.36c30.086,0,49.02-19.69,49.02-51.36S825-101.068,794.915-101.068Zm0,20.517c14.114,0,23.339,11.979,23.339,30.913,0,18.864-9.226,30.844-23.339,30.844-14.183,0-23.339-11.979-23.339-30.844C771.576-68.572,780.8-80.552,794.915-80.552Z" transform="translate(536 373)" fill="#fff"/>
  </g>
</svg>
